<?xml version="1.0" standalone="no"?>
<!DOCTYPE svg PUBLIC "-//W3C//DTD SVG 20010904//EN"
 "http://www.w3.org/TR/2001/REC-SVG-20010904/DTD/svg10.dtd">
<svg version="1.0" xmlns="http://www.w3.org/2000/svg"
 width="563.000000pt" height="374.000000pt" viewBox="0 0 563.000000 374.000000"
 preserveAspectRatio="xMidYMid meet">

<g transform="translate(0.000000,374.000000) scale(0.100000,-0.100000)"
fill="#000000" stroke="none">
<path d="M1870 2609 c-175 -45 -296 -111 -408 -221 -79 -78 -124 -139 -158
-213 -23 -49 -26 -67 -22 -125 18 -249 372 -484 1005 -666 458 -131 1029 -194
1401 -153 219 23 400 87 482 169 79 79 131 241 116 362 -11 86 -16 87 -82 18
-111 -116 -303 -225 -531 -299 -144 -47 -266 -73 -355 -75 -81 -1 -97 9 -78
53 15 38 159 177 268 260 185 140 482 306 570 318 51 7 48 12 -47 82 -84 63
-160 101 -200 101 -88 0 -262 -87 -704 -353 -403 -244 -523 -308 -611 -331
-78 -21 -106 -10 -106 41 1 99 106 231 350 435 127 106 340 225 498 278 157
52 318 62 427 26 11 -4 -9 8 -45 27 -147 77 -275 107 -478 109 -117 1 -133 -1
-202 -26 -156 -59 -326 -158 -717 -419 -273 -183 -394 -251 -434 -245 -54 7
-25 154 55 277 188 290 660 532 990 507 51 -4 63 -3 42 3 -119 40 -533 40
-665 2 -199 -58 -365 -164 -596 -381 -66 -61 -128 -116 -138 -121 -26 -14 -40
32 -33 106 19 187 217 380 456 445 25 7 92 16 150 20 l105 7 -115 1 c-84 1
-135 -4 -190 -19z"/>
<path d="M2188 2613 c7 -3 16 -2 19 1 4 3 -2 6 -13 5 -11 0 -14 -3 -6 -6z"/>
<path d="M2085 1118 c7 -17 187 -143 306 -213 151 -90 483 -252 515 -252 16 0
37 -3 47 -7 12 -6 16 -5 12 5 -3 8 -47 29 -98 47 -154 56 -441 203 -603 310
-83 55 -154 105 -158 111 -10 15 -27 14 -21 -1z"/>
<path d="M4610 1040 c-8 -5 -10 -10 -5 -10 6 0 17 5 25 10 8 5 11 10 5 10 -5
0 -17 -5 -25 -10z"/>
<path d="M2426 1018 c15 -25 245 -96 439 -137 270 -57 545 -82 545 -51 0 4
-53 10 -117 14 -245 14 -548 74 -787 153 -46 16 -82 25 -80 21z"/>
<path d="M4360 1010 c-19 -11 -30 -19 -25 -19 6 0 26 8 45 19 19 11 31 19 25
19 -5 0 -26 -8 -45 -19z"/>
<path d="M4470 1009 c-38 -15 -60 -40 -60 -66 0 -38 40 -29 104 23 31 26 56
48 56 50 0 8 -76 2 -100 -7z"/>
<path d="M4361 989 c-14 -5 -31 -7 -38 -4 -8 2 -12 1 -9 -4 3 -5 -1 -11 -8
-14 -23 -9 -47 -52 -40 -71 10 -27 42 -18 90 26 56 52 72 78 47 77 -10 0 -29
-5 -42 -10z"/>
<path d="M4196 958 c2 -4 -6 -10 -18 -13 -34 -11 -58 -35 -58 -60 0 -54 72
-28 130 45 l31 39 -44 -2 c-25 -1 -43 -5 -41 -9z"/>
<path d="M4090 939 c-19 -4 -41 -6 -48 -4 -7 3 -10 0 -7 -5 3 -6 0 -10 -8 -10
-16 0 -57 -41 -57 -57 0 -6 6 -16 14 -22 21 -18 86 18 126 69 17 22 28 40 23
39 -4 -1 -24 -5 -43 -10z"/>
<path d="M4484 925 c-55 -55 11 -73 94 -25 28 17 52 35 52 40 0 6 -27 10 -60
10 -52 0 -65 -4 -86 -25z"/>
<path d="M3906 919 c2 -4 -8 -10 -24 -14 -37 -9 -52 -23 -52 -51 0 -46 47 -43
105 8 59 51 61 63 10 63 -24 0 -41 -3 -39 -6z"/>
<path d="M3736 895 c-54 -19 -71 -50 -42 -74 22 -19 60 -3 107 45 l43 44 -34
0 c-19 -1 -53 -7 -74 -15z"/>
<path d="M3470 887 c-26 -9 -36 -18 -38 -38 -2 -19 2 -28 17 -32 24 -6 52 13
81 53 l21 30 -23 -1 c-13 0 -39 -5 -58 -12z"/>
<path d="M3573 890 c-33 -13 -49 -49 -30 -67 22 -23 67 -8 117 37 l44 40 -54
-1 c-30 0 -65 -4 -77 -9z"/>
<path d="M4348 865 c-14 -31 3 -55 39 -55 32 0 113 21 113 29 0 13 -81 51
-110 51 -23 0 -33 -6 -42 -25z"/>
<path d="M4212 848 c-30 -30 -5 -68 44 -68 43 0 94 11 94 20 0 4 -17 19 -38
34 -41 28 -80 34 -100 14z"/>
<path d="M4058 815 c-21 -46 32 -72 116 -57 l40 7 -44 38 c-53 45 -95 50 -112
12z"/>
<path d="M3917 813 c-12 -11 -8 -50 6 -61 15 -13 51 -17 112 -13 l40 2 -44 39
c-32 29 -52 40 -76 40 -17 0 -35 -3 -38 -7z"/>
<path d="M3354 798 c-12 -18 34 -48 75 -48 l36 1 -33 29 c-34 31 -66 38 -78
18z"/>
<path d="M3482 798 c-38 -38 7 -80 91 -86 l62 -3 -52 50 c-52 51 -79 61 -101
39z"/>
<path d="M3620 790 c-16 -29 3 -57 48 -70 44 -12 102 -13 102 -2 0 11 -60 67
-87 81 -32 16 -51 14 -63 -9z"/>
<path d="M3770 795 c-31 -38 19 -75 101 -75 61 0 61 11 0 58 -46 34 -81 41
-101 17z"/>
<path d="M4438 793 c7 -3 16 -2 19 1 4 3 -2 6 -13 5 -11 0 -14 -3 -6 -6z"/>
<path d="M4288 763 c6 -2 18 -2 25 0 6 3 1 5 -13 5 -14 0 -19 -2 -12 -5z"/>
<path d="M4128 733 c6 -2 18 -2 25 0 6 3 1 5 -13 5 -14 0 -19 -2 -12 -5z"/>
<path d="M3818 703 c6 -2 18 -2 25 0 6 3 1 5 -13 5 -14 0 -19 -2 -12 -5z"/>
<path d="M3678 693 c7 -3 16 -2 19 1 4 3 -2 6 -13 5 -11 0 -14 -3 -6 -6z"/>
<path d="M3868 693 c6 -2 18 -2 25 0 6 3 1 5 -13 5 -14 0 -19 -2 -12 -5z"/>
<path d="M2998 679 c-22 -12 -23 -32 -3 -49 18 -15 48 -8 94 21 27 16 31 23
20 30 -19 12 -90 11 -111 -2z"/>
<path d="M3188 673 c6 -2 18 -2 25 0 6 3 1 5 -13 5 -14 0 -19 -2 -12 -5z"/>
<path d="M3768 673 c7 -3 16 -2 19 1 4 3 -2 6 -13 5 -11 0 -14 -3 -6 -6z"/>
<path d="M3107 648 c-12 -9 -18 -23 -15 -39 4 -35 46 -36 116 -4 49 22 54 28
39 36 -32 18 -120 22 -140 7z"/>
<path d="M2907 643 c-16 -16 -4 -45 26 -63 62 -38 69 -13 14 48 -22 23 -29 26
-40 15z"/>
<path d="M3348 633 c6 -2 18 -2 25 0 6 3 1 5 -13 5 -14 0 -19 -2 -12 -5z"/>
<path d="M3241 601 c-28 -28 -13 -61 27 -61 36 0 136 50 125 61 -5 5 -36 12
-70 15 -53 6 -63 4 -82 -15z"/>
<path d="M3003 584 c-15 -39 59 -103 120 -104 16 0 16 3 -3 40 -12 23 -30 50
-40 60 -24 24 -68 26 -77 4z"/>
<path d="M3453 593 c9 -2 23 -2 30 0 6 3 -1 5 -18 5 -16 0 -22 -2 -12 -5z"/>
<path d="M3388 569 c-10 -5 -18 -21 -18 -34 0 -23 4 -25 43 -25 28 0 58 10 90
29 45 26 47 29 25 34 -36 10 -121 8 -140 -4z"/>
<path d="M3591 563 c-1 -7 -12 -13 -25 -13 -29 0 -58 -26 -54 -49 5 -26 61
-25 116 3 69 35 73 46 18 46 -26 0 -46 5 -49 13 -4 10 -6 10 -6 0z"/>
<path d="M3152 548 c-32 -32 3 -75 81 -101 26 -9 47 -14 47 -11 0 17 -44 86
-66 103 -30 24 -45 26 -62 9z"/>
<path d="M3684 520 c-12 -4 -24 -18 -27 -29 -7 -29 21 -43 63 -31 32 9 120 57
120 65 0 9 -134 4 -156 -5z"/>
<path d="M3878 519 c-58 -26 -73 -37 -73 -54 0 -31 69 -25 127 11 26 16 48 32
48 35 0 9 -85 16 -102 8z"/>
<path d="M3290 505 c-17 -20 -9 -45 21 -67 24 -18 99 -41 107 -33 7 7 -30 68
-55 91 -30 27 -55 31 -73 9z"/>
<path d="M3972 484 c-12 -8 -22 -24 -22 -36 0 -18 5 -20 38 -16 20 3 62 16 91
29 44 18 50 24 35 30 -35 14 -119 10 -142 -7z"/>
<path d="M3436 474 c-20 -19 -20 -24 -1 -51 13 -18 96 -53 126 -53 14 0 -42
88 -66 104 -30 20 -40 20 -59 0z"/>
<path d="M3160 456 c0 -3 14 -12 30 -21 17 -9 30 -13 30 -11 0 3 -13 12 -30
21 -16 9 -30 13 -30 11z"/>
<path d="M3583 452 c-11 -7 -16 -26 -14 -49 0 -7 13 -19 29 -27 30 -15 112
-31 112 -22 0 4 -11 24 -25 46 -33 53 -71 72 -102 52z"/>
<path d="M3726 424 c-35 -35 -5 -69 74 -84 29 -5 55 -10 57 -10 10 0 -35 64
-60 86 -33 28 -50 30 -71 8z"/>
<path d="M4031 431 c-54 -15 -54 -71 -1 -71 36 0 121 19 133 30 4 4 -14 17
-42 29 -53 22 -53 23 -90 12z"/>
<path d="M3872 408 c-39 -39 10 -81 89 -76 l53 3 -40 43 c-42 43 -78 54 -102
30z"/>
<path d="M3330 405 c0 -2 23 -16 50 -30 28 -14 50 -23 50 -20 0 2 -22 16 -50
30 -27 14 -50 23 -50 20z"/>
<path d="M4268 393 c7 -3 16 -2 19 1 4 3 -2 6 -13 5 -11 0 -14 -3 -6 -6z"/>
<path d="M3470 370 c19 -11 40 -19 45 -19 6 0 -6 8 -25 19 -19 11 -39 19 -45
19 -5 0 6 -8 25 -19z"/>
<path d="M3680 320 c8 -5 20 -10 25 -10 6 0 3 5 -5 10 -8 5 -19 10 -25 10 -5
0 -3 -5 5 -10z"/>
<path d="M3780 320 c8 -5 20 -10 25 -10 6 0 3 5 -5 10 -8 5 -19 10 -25 10 -5
0 -3 -5 5 -10z"/>
<path d="M4043 323 c9 -2 23 -2 30 0 6 3 -1 5 -18 5 -16 0 -22 -2 -12 -5z"/>
<path d="M3590 316 c0 -2 7 -7 16 -10 8 -3 12 -2 9 4 -6 10 -25 14 -25 6z"/>
<path d="M3915 310 c11 -5 27 -9 35 -9 9 0 8 4 -5 9 -11 5 -27 9 -35 9 -9 0
-8 -4 5 -9z"/>
<path d="M3978 293 c7 -3 16 -2 19 1 4 3 -2 6 -13 5 -11 0 -14 -3 -6 -6z"/>
<path d="M480 145 c0 -19 5 -35 10 -35 6 0 10 16 10 35 0 19 -4 35 -10 35 -5
0 -10 -16 -10 -35z"/>
<path d="M513 145 c0 -22 2 -30 4 -17 2 12 2 30 0 40 -3 9 -5 -1 -4 -23z"/>
<path d="M980 145 c0 -19 2 -35 4 -35 2 0 11 -3 20 -6 9 -3 16 -1 16 5 0 6 -7
11 -15 11 -21 0 -19 18 3 23 16 4 16 5 0 6 -10 0 -18 5 -18 10 0 5 8 12 18 14
13 4 11 5 -5 6 -20 1 -23 -4 -23 -34z"/>
<path d="M1037 173 c-10 -9 -8 -63 2 -63 4 0 8 10 7 23 0 12 4 23 9 24 6 1 8
-6 7 -15 -3 -13 -1 -14 8 -5 7 6 10 19 7 27 -7 16 -28 21 -40 9z"/>
<path d="M1095 169 c-4 -5 0 -18 9 -28 21 -23 20 -35 -1 -26 -14 5 -15 4 -6
-6 10 -10 16 -9 28 1 14 12 14 15 -2 32 -15 17 -15 21 -3 28 13 8 12 10 -2 10
-9 0 -20 -5 -23 -11z"/>
<path d="M1187 148 c8 -46 13 -48 13 -5 0 21 -4 37 -10 37 -5 0 -7 -14 -3 -32z"/>
<path d="M1232 168 c-17 -17 -15 -43 3 -58 21 -18 37 0 33 36 -3 31 -18 40
-36 22z m19 -51 c-8 -8 -11 -4 -11 14 0 33 14 47 18 19 2 -12 -1 -27 -7 -33z"/>
<path d="M300 142 c0 -17 4 -33 9 -36 10 -6 8 51 -3 61 -3 3 -6 -8 -6 -25z"/>
<path d="M642 138 c2 -17 8 -33 14 -35 6 -2 8 10 6 32 -5 44 -24 47 -20 3z"/>
<path d="M768 165 c-7 -7 2 -54 12 -60 4 -3 7 8 6 24 -1 31 -9 45 -18 36z"/>
<path d="M170 147 c0 -9 -4 -17 -10 -17 -5 0 -10 5 -10 12 0 6 -2 9 -5 6 -7
-7 5 -38 15 -38 11 0 24 40 16 47 -3 4 -6 -1 -6 -10z"/>
<path d="M194 145 c-9 -22 3 -45 23 -45 15 0 15 2 4 9 -16 10 -24 41 -11 41 5
0 11 -6 13 -12 3 -8 6 -6 6 5 1 21 -27 23 -35 2z"/>
<path d="M246 144 c-7 -18 10 -44 28 -44 6 0 2 8 -9 16 -20 15 -20 15 -1 30
16 11 17 14 4 14 -9 0 -19 -7 -22 -16z"/>
<path d="M336 143 c-4 -9 0 -23 9 -32 13 -14 17 -14 30 0 19 19 10 49 -15 49
-10 0 -21 -8 -24 -17z m34 -13 c0 -21 -15 -27 -25 -10 -7 12 2 30 16 30 5 0 9
-9 9 -20z"/>
<path d="M400 135 c0 -14 2 -25 4 -25 2 0 6 11 8 25 3 14 1 25 -3 25 -5 0 -9
-11 -9 -25z"/>
<path d="M462 135 c0 -16 2 -22 5 -12 2 9 2 23 0 30 -3 6 -5 -1 -5 -18z"/>
<path d="M533 144 c-3 -8 1 -22 9 -30 13 -13 14 -11 10 16 -5 34 -10 37 -19
14z"/>
<path d="M572 130 c0 -19 2 -27 5 -17 2 9 2 25 0 35 -3 9 -5 1 -5 -18z"/>
<path d="M595 151 c-3 -6 3 -14 12 -20 16 -9 16 -12 3 -21 -9 -6 -10 -10 -3
-10 18 0 26 19 14 34 -6 7 -8 16 -4 19 3 4 1 7 -5 7 -6 0 -13 -4 -17 -9z"/>
<path d="M681 128 c1 -22 3 -26 6 -13 3 11 10 26 15 33 8 9 6 12 -6 12 -12 0
-16 -9 -15 -32z"/>
<path d="M728 153 c10 -4 8 -8 -5 -18 -21 -16 -6 -39 19 -30 20 8 11 55 -11
54 -11 0 -12 -2 -3 -6z m12 -33 c0 -5 -2 -10 -4 -10 -3 0 -8 5 -11 10 -3 6 -1
10 4 10 6 0 11 -4 11 -10z"/>
<path d="M806 142 c-4 -13 -5 -26 -2 -29 10 -11 18 4 14 29 l-4 23 -8 -23z"/>
<path d="M834 146 c-9 -24 4 -48 23 -44 12 2 18 12 18 28 0 29 -32 41 -41 16z
m31 -26 c-5 -8 -11 -8 -17 -2 -6 6 -7 16 -3 22 5 8 11 8 17 2 6 -6 7 -16 3
-22z"/>
<path d="M891 133 c0 -27 1 -27 9 -5 5 12 12 22 15 22 3 0 10 -10 15 -22 10
-23 10 -23 7 2 -1 17 -9 26 -24 28 -19 3 -23 -1 -22 -25z"/>
</g>
</svg>
