<?xml version="1.0" standalone="no"?>
<!DOCTYPE svg PUBLIC "-//W3C//DTD SVG 20010904//EN"
 "http://www.w3.org/TR/2001/REC-SVG-20010904/DTD/svg10.dtd">
<svg version="1.0" xmlns="http://www.w3.org/2000/svg"
 width="564.000000pt" height="451.000000pt" viewBox="0 0 564.000000 451.000000"
 preserveAspectRatio="xMidYMid meet">

<g transform="translate(0.000000,451.000000) scale(0.100000,-0.100000)"
fill="#000000" stroke="none">
<path d="M2902 3500 c-186 -41 -312 -100 -439 -208 l-65 -55 -69 76 c-82 90
-141 122 -250 135 -98 12 -200 0 -315 -37 -173 -56 -319 -146 -457 -284 -49
-49 -102 -93 -116 -99 -14 -5 -73 -13 -131 -17 -136 -11 -180 -32 -281 -138
-151 -158 -209 -270 -228 -437 -10 -84 -18 -107 -79 -216 -152 -272 -14 -677
297 -879 85 -55 191 -97 318 -126 59 -14 189 -48 288 -75 302 -83 348 -88
1025 -126 382 -21 530 -25 755 -21 281 5 335 11 610 62 44 8 181 19 305 25
407 18 570 45 688 111 31 17 94 52 138 76 149 82 250 182 342 338 78 134 87
174 87 390 0 182 -1 194 -29 278 -36 109 -83 182 -176 272 -40 39 -104 117
-143 175 -39 58 -90 131 -115 163 -47 63 -149 151 -204 179 -403 200 -491 230
-673 231 -92 1 -119 -2 -167 -21 l-57 -23 -108 74 c-124 86 -218 135 -318 167
-102 33 -305 37 -433 10z m394 -50 c108 -28 238 -93 364 -183 111 -79 138
-107 265 -278 171 -230 323 -509 441 -811 76 -196 101 -238 143 -238 82 0 131
160 111 362 -27 276 -92 469 -224 667 -80 120 -162 203 -233 237 -30 14 -53
27 -50 30 13 13 199 -58 379 -145 187 -92 213 -107 276 -169 38 -37 104 -119
146 -182 42 -63 92 -136 111 -163 68 -96 108 -251 109 -424 1 -62 4 -113 8
-113 28 0 37 212 13 340 -7 41 -12 77 -10 78 6 7 68 -83 91 -133 38 -81 54
-162 60 -300 7 -156 -6 -228 -66 -348 -90 -178 -187 -276 -390 -391 -192 -109
-321 -139 -645 -151 -250 -9 -397 -22 -515 -45 -269 -53 -636 -64 -1134 -35
-138 8 -341 19 -451 25 -344 19 -459 36 -720 110 -77 22 -190 51 -251 64 -222
49 -366 125 -489 258 -124 134 -207 352 -189 498 12 102 65 238 78 199 2 -8
14 -45 26 -83 43 -140 97 -216 187 -263 73 -38 108 -47 134 -32 31 16 17 52
-44 119 -92 101 -161 244 -209 434 -24 98 -20 144 19 228 57 122 238 317 315
338 61 18 63 16 97 -82 115 -334 344 -645 624 -847 112 -80 299 -177 361 -186
92 -14 104 35 66 261 -44 254 -112 468 -217 683 -56 113 -75 143 -129 196
-111 108 -239 158 -354 137 -30 -6 -57 -9 -58 -7 -2 2 34 33 80 70 101 80 264
165 384 200 122 37 271 38 359 5 83 -32 174 -124 250 -255 273 -466 624 -993
737 -1105 125 -124 256 -190 333 -169 110 31 98 196 -47 624 -124 366 -273
620 -443 757 -137 111 -324 129 -465 45 -30 -18 -33 -19 -21 -3 20 25 154 102
221 127 180 68 412 88 566 49z"/>
</g>
</svg>
