<?xml version="1.0" standalone="no"?>
<!DOCTYPE svg PUBLIC "-//W3C//DTD SVG 20010904//EN"
 "http://www.w3.org/TR/2001/REC-SVG-20010904/DTD/svg10.dtd">
<svg version="1.0" xmlns="http://www.w3.org/2000/svg"
 width="563.000000pt" height="472.000000pt" viewBox="0 0 563.000000 472.000000"
 preserveAspectRatio="xMidYMid meet">

<g transform="translate(0.000000,472.000000) scale(0.100000,-0.100000)"
fill="#000000" stroke="none">
<path d="M2785 3293 c-78 -6 -85 -11 -50 -39 17 -13 26 -24 22 -24 -8 0 29
-58 43 -70 4 -3 15 -28 25 -57 10 -29 22 -50 26 -48 3 3 7 -5 7 -18 0 -12 7
-51 16 -87 9 -36 16 -96 16 -134 0 -68 0 -69 -19 -50 -10 10 -17 22 -14 26 5
9 -66 152 -78 156 -5 2 -9 10 -9 17 0 7 -15 29 -34 48 -19 20 -32 37 -30 39 2
3 -14 22 -36 43 -22 22 -40 36 -40 32 0 -4 -9 2 -20 13 -12 12 -24 19 -28 16
-5 -3 -13 3 -19 13 -11 17 -5 20 83 31 92 12 114 22 73 33 -12 3 -18 10 -14
16 3 6 2 11 -3 11 -6 0 -13 -7 -16 -16 -3 -8 -2 -12 3 -9 5 3 12 1 16 -5 4 -6
-6 -10 -22 -11 -63 -2 -135 -17 -144 -31 -3 -5 -19 2 -35 17 -35 32 -55 30
-199 -25 -136 -52 -206 -86 -197 -94 4 -5 0 -6 -8 -5 -42 10 -228 -123 -217
-154 2 -6 -8 -24 -22 -40 -14 -16 -25 -34 -23 -39 1 -5 -5 -7 -15 -4 -68 19
-90 18 -111 -8 -11 -14 -24 -26 -30 -26 -12 0 -174 -172 -168 -178 3 -2 -6
-16 -20 -30 -22 -24 -25 -30 -24 -47 1 -3 -6 -13 -14 -21 -20 -19 -56 -136
-56 -178 0 -55 29 -123 74 -170 42 -45 66 -58 66 -34 0 6 -2 9 -5 6 -6 -6 -51
37 -73 68 -66 97 -55 196 36 344 26 41 47 80 47 85 0 6 5 10 10 11 13 1 180
167 178 176 -4 11 101 -19 162 -47 33 -15 67 -27 75 -26 8 2 12 0 8 -5 -9 -9
52 -55 63 -48 5 3 9 -2 9 -11 0 -11 5 -15 16 -11 9 3 12 2 9 -5 -4 -5 6 -20
22 -32 15 -12 47 -39 69 -59 47 -43 64 -47 64 -17 0 28 -41 120 -51 114 -4 -3
1 -24 11 -47 22 -50 15 -84 -9 -44 -9 15 -28 32 -43 38 -14 7 -25 16 -22 20 5
7 -62 65 -71 61 -2 -2 -15 8 -29 21 -28 29 -121 78 -130 69 -3 -4 -6 -1 -6 5
0 7 -10 12 -22 12 -22 1 -21 2 8 28 17 15 44 37 60 48 16 12 25 26 21 30 -5 5
-15 1 -22 -10 -21 -29 -36 -10 -18 24 l14 30 37 -35 c20 -19 40 -35 45 -35 17
0 5 20 -24 40 -17 13 -29 29 -27 39 2 9 7 15 11 13 7 -3 176 85 187 97 3 3 12
7 20 9 8 2 17 8 18 13 2 5 8 6 13 3 6 -3 15 -1 22 4 7 5 60 26 119 46 103 35
142 40 156 20 4 -6 27 -22 52 -36 68 -39 136 -104 182 -172 23 -33 45 -62 50
-64 4 -2 8 -10 8 -18 0 -8 5 -14 10 -14 6 0 9 -3 8 -7 -3 -18 15 -62 24 -57 5
3 8 0 6 -8 -4 -20 33 -98 47 -98 34 0 33 115 0 256 -24 102 -68 204 -87 204
-5 0 -7 3 -4 8 7 11 -50 83 -59 74 -5 -4 -5 -2 -2 5 5 8 55 10 169 8 160 -2
296 -19 411 -50 32 -8 63 -13 68 -9 5 3 9 1 9 -4 0 -6 22 -15 50 -22 27 -7 48
-15 45 -19 -4 -8 36 -47 45 -43 3 1 5 -3 5 -8 0 -6 5 -14 10 -18 6 -4 26 -27
45 -52 19 -25 39 -48 45 -52 5 -4 6 -8 1 -8 -4 0 0 -12 10 -27 10 -16 28 -49
41 -75 13 -27 27 -48 33 -48 5 0 7 -7 4 -15 -4 -8 -1 -15 7 -15 7 0 10 -3 6
-6 -5 -5 13 -55 50 -132 13 -28 18 -31 31 -20 12 10 14 10 8 1 -4 -7 -2 -13 3
-13 6 0 11 3 11 8 1 4 5 41 10 82 5 45 5 109 -1 160 -11 98 -16 120 -30 120
-6 0 -7 -9 -4 -21 6 -19 25 -158 26 -189 1 -48 -16 -121 -30 -132 -9 -7 -13
-9 -9 -4 3 4 -5 33 -19 64 -59 134 -103 222 -111 222 -5 0 -9 6 -9 13 0 23
-45 87 -56 81 -7 -4 -4 2 6 12 13 14 20 16 25 7 9 -15 91 -52 115 -53 9 0 17
-4 17 -10 0 -5 9 -14 20 -20 16 -9 18 -8 14 5 -3 8 -10 12 -15 9 -5 -3 -9 0
-9 6 0 6 -38 29 -84 51 -77 36 -120 51 -87 30 7 -5 9 -11 5 -13 -9 -5 -103 89
-97 97 2 3 0 3 -4 0 -3 -3 -12 4 -20 14 -14 21 -117 56 -133 46 -6 -3 -10 -2
-10 3 0 8 -161 44 -255 57 -54 7 -248 12 -310 8z m-134 -190 c13 -16 12 -17
-3 -4 -17 13 -22 21 -14 21 2 0 10 -8 17 -17z m-751 -203 c0 -5 -5 -10 -11
-10 -5 0 -7 5 -4 10 3 6 8 10 11 10 2 0 4 -4 4 -10z"/>
<path d="M3794 3036 c-10 -10 -6 -13 16 -14 16 0 47 -12 69 -26 22 -14 45 -26
51 -26 5 0 10 -5 10 -11 0 -5 5 -7 10 -4 6 3 10 2 10 -2 0 -5 35 -35 78 -66
82 -60 244 -219 256 -251 5 -15 9 -17 19 -7 9 10 3 21 -31 52 -24 21 -40 39
-35 39 4 0 -32 39 -81 86 -48 47 -91 83 -94 80 -3 -3 -11 3 -19 14 -8 12 -20
17 -30 13 -11 -4 -14 -3 -9 6 5 8 1 14 -13 18 -12 3 -21 9 -21 14 0 10 -81 54
-92 51 -5 -1 -8 3 -8 9 0 5 -5 7 -10 4 -6 -3 -13 1 -16 10 -4 9 -13 14 -20 11
-8 -3 -14 -1 -14 4 0 14 -13 12 -26 -4z m356 -221 c19 -19 32 -35 29 -35 -3 0
-20 16 -39 35 -19 19 -32 35 -29 35 3 0 20 -16 39 -35z"/>
<path d="M2015 2900 c-5 -9 -4 -11 3 -6 7 4 12 2 12 -5 0 -7 16 -27 35 -45 18
-19 31 -34 28 -34 -4 0 3 -10 14 -22 11 -13 28 -38 37 -56 9 -18 21 -30 27
-26 11 7 -13 51 -39 72 -9 6 -13 12 -9 12 9 0 -2 14 -59 78 -30 33 -43 42 -49
32z"/>
<path d="M4320 2612 c0 -6 9 -28 20 -48 27 -46 50 -149 43 -184 -3 -16 0 -36
6 -47 8 -14 10 1 11 65 0 51 -4 82 -11 82 -5 0 -7 4 -4 10 7 12 -32 105 -51
121 -10 8 -14 8 -14 1z"/>
<path d="M2259 2441 c-1 -9 -1 -19 0 -23 0 -5 -6 -8 -14 -8 -8 0 -15 6 -15 13
0 9 -2 9 -9 -1 -4 -7 -25 -15 -46 -18 -22 -3 -41 -6 -43 -8 -2 -3 -19 2 -37
10 -25 10 -41 11 -64 3 -17 -6 -31 -15 -31 -20 0 -4 -8 -6 -17 -2 -14 4 -15 3
-7 -6 8 -9 18 -9 38 -1 39 14 81 12 96 -4 6 -8 19 -12 27 -9 11 4 14 2 9 -5
-4 -7 -3 -12 1 -12 26 0 112 -104 153 -185 25 -48 50 -86 55 -84 12 5 11 169
-1 178 -5 3 -9 12 -10 19 -1 6 -2 18 -2 25 -1 7 -17 39 -36 70 -19 30 -31 58
-28 61 11 12 180 5 267 -10 50 -9 100 -17 113 -18 12 0 22 -4 22 -8 0 -3 13
-9 29 -13 31 -7 62 -32 87 -70 9 -14 23 -25 31 -25 8 0 11 -5 8 -10 -3 -6 3
-23 14 -39 12 -16 21 -33 21 -38 0 -14 37 -46 42 -36 3 4 3 3 2 -4 -2 -7 15
-25 36 -41 22 -16 37 -32 33 -35 -3 -4 -1 -7 5 -7 20 0 21 16 1 33 -10 9 -22
17 -26 17 -7 0 -32 32 -33 43 0 4 12 12 26 17 15 6 22 14 18 22 -5 7 -2 9 8 5
9 -3 44 9 79 27 118 61 229 88 229 57 0 -4 17 -16 38 -26 47 -23 112 -102 157
-191 58 -114 75 -120 75 -28 0 34 -4 53 -10 49 -6 -4 -7 6 -4 25 4 19 2 30 -4
30 -6 0 -9 6 -6 13 7 19 -35 127 -52 134 -8 3 -11 9 -8 14 3 5 0 9 -5 9 -6 0
-11 7 -11 16 0 15 14 16 138 11 142 -6 273 -32 322 -65 14 -9 29 -15 33 -14 4
1 10 -6 14 -15 12 -33 55 -83 66 -76 6 4 4 11 -7 19 -12 8 -14 14 -6 19 6 4
19 0 29 -9 10 -9 21 -13 24 -9 4 3 7 1 7 -6 0 -7 5 -9 10 -6 6 3 10 2 10 -3 0
-6 7 -12 15 -16 8 -3 14 0 12 7 -1 7 -24 23 -50 35 -38 19 -51 21 -62 12 -12
-10 -15 -10 -15 1 -1 20 -48 71 -60 64 -6 -3 -10 0 -10 9 0 27 -205 69 -356
72 -124 3 -132 2 -137 -16 -3 -11 -1 -18 4 -14 5 3 9 0 9 -5 0 -10 -33 -15
-71 -12 -9 1 -28 -3 -43 -9 -21 -8 -32 -6 -52 6 -23 16 -29 15 -107 -15 -45
-18 -96 -38 -114 -46 -17 -8 -33 -11 -36 -7 -2 4 -2 1 -1 -5 2 -7 -3 -13 -11
-13 -8 0 -15 -5 -15 -11 0 -5 -4 -7 -10 -4 -15 10 -12 35 5 35 21 0 19 16 -2
25 -43 19 -44 16 -27 -42 5 -18 -1 -26 -27 -42 -35 -22 -54 -27 -45 -13 8 14
-60 117 -75 114 -11 -3 -11 -1 -2 9 17 17 -65 83 -131 103 -138 43 -425 61
-427 27z m31 -74 c31 -50 61 -157 59 -208 -2 -25 1 -51 5 -58 4 -7 6 -15 3
-18 -6 -5 -38 52 -36 64 3 20 -2 34 -11 28 -6 -4 -7 1 -3 11 4 12 3 15 -5 10
-7 -4 -10 -2 -7 6 6 15 -51 98 -66 98 -6 0 -8 4 -5 9 5 8 -16 23 -36 25 -3 1
-10 5 -15 10 -5 5 -2 6 7 2 8 -4 4 2 -10 13 -14 11 -31 19 -38 16 -7 -3 -11
-1 -8 4 3 4 19 8 37 9 17 0 33 3 35 5 2 2 20 4 39 5 30 1 39 -4 55 -31z m1194
-70 c4 4 4 -1 0 -11 -5 -13 -4 -17 4 -12 8 5 10 1 5 -10 -5 -13 -3 -15 7 -9 8
5 11 4 7 -2 -4 -6 -2 -24 3 -39 14 -41 38 -183 32 -189 -3 -3 -16 20 -30 50
-14 30 -29 52 -35 48 -6 -4 -7 -1 -2 7 5 8 -1 20 -16 32 -13 11 -17 17 -9 13
8 -4 4 3 -10 15 -14 12 -18 18 -10 14 13 -7 13 -5 1 9 -7 9 -17 14 -22 11 -5
-3 -8 0 -7 8 2 7 -3 12 -10 10 -8 -1 -11 2 -7 7 6 10 -34 37 -48 33 -5 -1 -5
3 -1 9 5 9 2 10 -10 6 -9 -4 -15 -3 -12 1 3 5 22 9 43 10 21 1 52 6 68 10 24
7 32 5 41 -10 5 -10 13 -15 18 -11z"/>
<path d="M1874 2346 c-105 -50 -180 -100 -187 -127 -5 -22 -4 -22 20 6 14 17
23 25 20 19 -4 -6 0 -11 7 -11 8 0 12 5 10 11 -4 11 151 94 204 111 12 3 20
11 17 16 -8 13 -11 12 -91 -25z"/>
<path d="M3415 2359 c-4 -6 -5 -12 -2 -15 2 -3 7 2 10 11 7 17 1 20 -8 4z"/>
<path d="M4355 2282 c-11 -26 -19 -50 -17 -54 1 -5 -5 -8 -13 -8 -8 0 -22 -15
-31 -32 l-17 -33 28 25 c35 32 77 98 70 110 -3 4 -1 10 5 12 5 1 6 8 2 15 -5
7 -15 -6 -27 -35z"/>
<path d="M2848 2308 c21 -26 113 -71 105 -53 -3 9 -26 25 -52 36 -25 12 -50
24 -56 27 -5 3 -4 -1 3 -10z"/>
<path d="M1754 2223 c-5 -2 17 -31 50 -66 34 -34 61 -65 62 -69 1 -5 2 -13 3
-19 0 -5 5 -8 10 -5 5 4 9 -11 8 -32 -1 -37 7 -62 21 -62 13 0 11 40 -4 75 -8
19 -19 35 -25 35 -5 0 -8 4 -5 9 6 9 -56 93 -90 122 -10 9 -24 15 -30 12z m41
-33 c10 -11 16 -20 13 -20 -3 0 -13 9 -23 20 -10 11 -16 20 -13 20 3 0 13 -9
23 -20z m115 -185 c0 -8 -4 -15 -10 -15 -5 0 -7 7 -4 15 4 8 8 15 10 15 2 0 4
-7 4 -15z"/>
<path d="M1692 2198 c-17 -11 -32 -22 -32 -23 0 -9 46 6 59 20 24 23 8 26 -27
3z"/>
<path d="M4140 2209 c0 -5 5 -7 10 -4 6 3 10 1 10 -4 0 -6 -4 -11 -9 -11 -11
0 -9 -19 3 -39 5 -7 8 -48 7 -89 -2 -73 -9 -101 -18 -74 -3 6 -10 9 -16 5 -7
-4 -8 0 -3 13 5 13 4 16 -4 8 -7 -7 -6 -19 6 -42 31 -64 53 -28 50 83 -1 44
-5 90 -9 103 -4 14 -2 22 6 22 15 0 97 -52 156 -100 24 -19 48 -34 52 -33 5 2
9 -3 9 -10 0 -6 22 -35 48 -64 26 -28 48 -57 50 -65 2 -7 10 -18 17 -24 8 -6
12 -13 9 -17 -3 -3 0 -22 6 -44 10 -31 9 -46 -5 -83 -9 -25 -17 -49 -18 -55
-4 -14 -67 -75 -78 -75 -5 0 -9 -5 -9 -10 0 -6 -3 -9 -7 -8 -5 1 -32 -10 -61
-26 -30 -15 -84 -36 -120 -47 -37 -11 -74 -23 -82 -26 -17 -7 -31 -9 -75 -11
-21 -2 -26 -5 -18 -13 13 -13 133 8 133 23 0 5 4 7 9 4 31 -19 301 119 285
145 -3 5 1 9 9 9 26 0 57 77 57 142 0 43 -3 57 -12 52 -8 -5 -9 -2 -5 11 5 11
-3 35 -20 64 -32 55 -132 163 -144 155 -5 -3 -9 2 -9 11 0 11 -5 15 -16 11 -8
-3 -13 -2 -9 3 3 5 -8 19 -25 31 -16 12 -30 18 -30 13 0 -4 -5 0 -11 10 -5 9
-17 17 -24 17 -8 0 -15 3 -15 8 0 8 -57 42 -71 42 -5 0 -9 -5 -9 -11z m281
-196 c13 -16 12 -17 -3 -4 -17 13 -22 21 -14 21 2 0 10 -8 17 -17z m-257 -48
c-4 -8 -11 -12 -16 -9 -6 4 -5 10 3 15 19 12 19 11 13 -6z"/>
<path d="M4037 2174 c-7 -8 14 -54 25 -54 4 0 8 -8 8 -17 1 -30 36 -88 44 -74
5 7 0 21 -10 32 -9 10 -14 19 -10 19 3 0 0 14 -9 30 -9 17 -20 30 -25 30 -5 0
-7 6 -4 14 6 15 -9 30 -19 20z"/>
<path d="M1503 2084 c-46 -47 -81 -89 -78 -95 4 -5 2 -9 -4 -9 -19 0 -53 -113
-48 -163 4 -47 31 -92 49 -81 5 3 2 14 -6 23 -9 10 -16 23 -16 30 0 7 -4 10
-9 6 -9 -5 -7 34 5 92 2 13 4 25 4 28 0 3 16 28 35 55 19 27 35 51 35 53 0 2
29 33 65 68 l65 65 56 -17 c30 -9 73 -29 95 -43 21 -15 42 -27 46 -29 4 -1 21
-17 39 -36 19 -21 33 -30 38 -23 8 14 -96 99 -154 125 -25 11 -53 24 -62 28
-46 23 -70 11 -155 -77z m17 3 c0 -2 -10 -12 -22 -23 l-23 -19 19 23 c18 21
26 27 26 19z"/>
<path d="M2877 2146 c-4 -11 -1 -13 11 -9 15 6 15 5 4 -10 -8 -9 -22 -19 -33
-22 -11 -4 -17 -10 -14 -15 3 -5 1 -11 -5 -15 -5 -3 -10 -1 -10 4 0 19 -50 12
-80 -11 -16 -11 -28 -24 -27 -27 2 -3 -10 -18 -25 -33 -15 -15 -28 -24 -28
-21 0 4 -13 -11 -29 -33 -16 -21 -27 -42 -25 -46 3 -5 0 -8 -6 -8 -20 0 -50
-83 -50 -138 0 -79 33 -129 120 -179 35 -21 97 -44 114 -42 5 0 12 -4 15 -9 9
-14 210 -64 229 -57 8 3 18 2 21 -3 14 -22 289 -45 541 -45 192 0 415 15 428
28 14 13 -13 15 -89 5 -379 -49 -983 7 -1189 110 -19 9 -42 15 -50 12 -8 -2
-11 -1 -7 4 4 4 -1 13 -11 18 -43 24 -91 76 -100 108 -10 37 -4 141 8 133 7
-4 45 65 42 78 -1 4 2 7 7 7 5 0 22 18 39 40 16 22 33 36 37 32 5 -4 5 -1 1 6
-4 6 -3 12 3 12 5 0 22 12 38 26 23 21 33 24 62 19 49 -9 108 -40 163 -86 26
-21 52 -39 59 -39 7 0 9 -3 6 -6 -8 -8 36 -44 53 -44 20 0 4 57 -36 121 -38
63 -49 75 -58 60 -4 -5 8 -23 25 -40 27 -28 35 -43 38 -74 1 -5 5 -5 11 -2 6
3 7 -1 4 -9 -7 -18 -16 -14 -61 27 -43 39 -73 60 -73 51 0 -4 -7 1 -15 12 -8
10 -15 15 -15 11 0 -5 -7 -1 -16 7 -8 9 -22 16 -30 16 -8 0 -14 7 -14 16 0 8
5 12 10 9 6 -3 10 -2 10 3 0 5 9 13 21 18 20 9 20 10 1 27 -17 15 -20 16 -25
3z m219 -244 c-4 -3 -14 2 -24 12 -16 18 -16 18 6 6 13 -6 21 -14 18 -18z
m-475 -259 c13 -16 12 -17 -3 -4 -17 13 -22 21 -14 21 2 0 10 -8 17 -17z"/>
<path d="M1426 1721 c-3 -5 5 -16 19 -25 14 -9 25 -14 25 -11 0 3 9 -4 20 -15
12 -12 25 -18 30 -15 4 3 10 0 12 -5 4 -13 138 -63 146 -55 7 7 9 6 -88 44
-47 19 -102 47 -122 63 -20 16 -39 24 -42 19z"/>
<path d="M1690 1593 c0 -23 341 -77 530 -84 193 -7 480 -2 480 10 0 3 -123 6
-273 7 -275 0 -455 15 -615 50 -37 8 -79 17 -94 20 -16 4 -28 2 -28 -3z"/>
<path d="M2710 1530 c0 -5 15 -10 33 -10 24 0 28 3 17 10 -20 13 -50 13 -50 0z"/>
</g>
</svg>
