<?xml version="1.0" standalone="no"?>
<!DOCTYPE svg PUBLIC "-//W3C//DTD SVG 20010904//EN"
 "http://www.w3.org/TR/2001/REC-SVG-20010904/DTD/svg10.dtd">
<svg version="1.0" xmlns="http://www.w3.org/2000/svg"
 width="250.000000pt" height="250.000000pt" viewBox="0 0 250.000000 250.000000"
 preserveAspectRatio="xMidYMid meet">

<g transform="translate(0.000000,250.000000) scale(0.100000,-0.100000)"
fill="#000000" stroke="none">
<path d="M1157 2094 c-20 -31 -37 -63 -37 -71 0 -13 27 -73 33 -73 2 0 1 15
-1 34 -4 33 31 116 48 116 4 0 17 -22 30 -49 21 -47 22 -51 6 -82 l-16 -34 20
24 c11 13 20 34 20 46 0 26 -49 145 -59 145 -4 0 -23 -25 -44 -56z"/>
<path d="M540 2018 c0 -46 18 -105 34 -111 11 -4 11 1 0 31 -7 21 -13 45 -14
55 0 17 2 17 32 1 18 -9 45 -30 60 -47 l28 -29 0 25 c0 28 -4 32 -82 76 l-58
32 0 -33z"/>
<path d="M1785 2028 c-63 -25 -85 -44 -84 -77 0 -24 1 -25 9 -5 4 12 28 30 52
41 l43 21 3 -25 c2 -15 -5 -38 -17 -54 -23 -31 -17 -37 13 -14 14 11 22 33 27
73 3 31 6 57 5 58 -1 0 -23 -8 -51 -18z"/>
<path d="M1447 1970 c-32 -37 -37 -50 -36 -89 l1 -46 10 36 c5 21 20 46 32 58
l23 21 13 -41 c11 -32 11 -48 2 -72 l-11 -32 19 24 c24 28 24 69 1 135 l-17
49 -37 -43z"/>
<path d="M1184 1986 c-3 -8 -1 -23 5 -33 9 -15 10 -13 11 15 0 34 -7 42 -16
18z"/>
<path d="M916 1943 c-32 -66 -35 -88 -17 -128 l16 -37 0 54 c0 33 6 62 16 76
l17 23 23 -38 c12 -21 23 -55 23 -75 0 -21 4 -32 8 -25 17 26 7 83 -22 135
-17 28 -34 52 -38 52 -5 0 -16 -17 -26 -37z"/>
<path d="M1740 1925 c-13 -14 -19 -25 -13 -25 6 0 18 11 27 25 9 14 15 25 13
25 -2 0 -14 -11 -27 -25z"/>
<path d="M619 1922 c6 -12 16 -24 22 -28 8 -4 8 -1 0 14 -6 12 -16 24 -22 28
-8 4 -8 1 0 -14z"/>
<path d="M1154 1888 c13 -71 25 -186 26 -240 0 -50 3 -58 18 -58 17 0 20 13
26 155 4 86 4 160 1 165 -3 6 -22 10 -42 10 -34 0 -35 -1 -29 -32z"/>
<path d="M1662 1888 c-20 -26 -80 -155 -96 -207 -19 -66 -20 -61 2 -61 12 0
26 20 45 63 15 35 50 89 77 119 l49 55 -29 22 c-34 25 -35 25 -48 9z"/>
<path d="M657 1869 l-27 -21 30 -37 c31 -40 100 -176 100 -198 0 -7 9 -13 20
-13 11 0 20 4 20 8 0 27 -98 282 -109 282 -3 0 -18 -10 -34 -21z"/>
<path d="M1454 1845 c-3 -8 -4 -20 -2 -27 3 -7 7 -1 10 15 6 29 1 36 -8 12z"/>
<path d="M953 1790 c0 -25 2 -35 4 -22 2 12 2 32 0 45 -2 12 -4 2 -4 -23z"/>
<path d="M1400 1696 c0 -79 1 -84 20 -79 13 4 22 17 26 42 4 20 13 52 20 73
12 34 11 36 -9 42 -55 15 -57 12 -57 -78z"/>
<path d="M930 1724 c0 -4 9 -38 20 -75 18 -61 24 -69 45 -69 22 0 25 4 25 38
0 20 -3 54 -6 75 -6 35 -8 37 -45 37 -22 0 -39 -3 -39 -6z"/>
<path d="M1290 1578 c-100 -15 -159 -18 -295 -14 -93 3 -183 8 -200 12 -16 4
-28 4 -25 1 3 -3 64 -18 135 -34 124 -26 143 -27 417 -28 272 -1 289 -2 315
-21 57 -43 56 -71 -6 -107 -42 -25 -125 -24 -226 2 -87 23 -130 20 -224 -13
-65 -24 -97 -20 -167 19 -76 43 -106 44 -182 5 -92 -47 -178 -38 -202 21 -24
57 19 104 90 97 23 -2 36 0 31 5 -5 5 -29 11 -53 14 -37 4 -49 1 -75 -21 -50
-42 -61 -126 -24 -195 18 -32 95 -65 138 -58 18 3 61 26 94 51 34 25 68 46 76
46 20 0 53 -18 91 -51 43 -38 86 -37 177 2 103 44 137 46 225 14 41 -15 106
-38 145 -52 104 -38 189 -18 268 61 63 63 53 128 -29 190 -101 77 -242 93
-494 54z"/>
<path d="M404 1399 c-4 -7 7 -22 25 -36 38 -30 67 -83 74 -140 7 -47 -3 -60
-31 -42 -28 18 -78 -5 -90 -40 -15 -42 -3 -78 35 -111 48 -42 112 -43 154 -1
51 52 34 131 -29 131 -26 0 -27 3 -29 54 -1 52 -17 92 -66 163 -24 35 -32 39
-43 22z m64 -252 c5 -23 -15 -47 -40 -47 -27 0 -34 27 -12 51 21 23 47 21 52
-4z"/>
<path d="M1229 1278 c-50 -47 -63 -67 -83 -130 -4 -13 -13 -16 -41 -11 -47 8
-75 -17 -75 -66 1 -80 91 -127 169 -86 32 16 41 33 41 79 0 43 -18 64 -57 68
l-31 3 13 39 c17 48 68 102 112 118 31 11 39 28 17 35 -6 2 -35 -20 -65 -49z
m-112 -175 c2 -6 -5 -21 -17 -33 -17 -17 -24 -19 -36 -9 -17 14 -18 31 -2 47
15 15 50 12 55 -5z"/>
<path d="M2095 1320 c-28 -4 -64 -14 -80 -23 -36 -18 -75 -51 -75 -62 0 -5 10
1 23 12 52 48 140 73 190 54 24 -9 27 -8 27 9 0 22 -4 22 -85 10z"/>
<path d="M1810 1260 c-19 -19 -22 -29 -22 -65 0 -35 3 -45 27 -74 53 -62 139
-62 170 0 25 48 19 77 -18 93 -18 7 -41 25 -50 40 -22 33 -77 36 -107 6z m86
-15 c9 -21 -14 -45 -43 -45 -28 0 -40 24 -23 45 16 19 59 19 66 0z"/>
<path d="M650 1093 c0 -67 3 -124 8 -126 4 -2 23 -7 43 -11 l37 -7 -25 62
c-13 33 -29 89 -35 122 -18 102 -28 88 -28 -40z"/>
<path d="M1636 1138 c-14 -39 -24 -73 -21 -76 2 -2 16 -2 30 2 24 6 25 10 25
76 0 39 -2 70 -4 70 -2 0 -15 -32 -30 -72z"/>
<path d="M1715 1064 c-132 -33 -437 -98 -535 -115 -211 -36 -456 -27 -690 26
-39 9 33 -29 123 -64 121 -48 258 -72 416 -72 153 0 211 7 466 55 232 45 279
49 344 35 93 -20 154 -96 110 -140 -19 -19 -27 -20 -68 -13 -25 4 -69 8 -97 8
-51 1 -75 -11 -157 -76 -25 -21 -40 -23 -135 -24 -100 0 -113 -3 -201 -38
-125 -51 -152 -48 -261 29 -117 81 -150 95 -242 95 -63 0 -98 -7 -182 -35
-115 -38 -179 -44 -215 -19 -32 23 -23 76 20 120 26 26 28 32 12 28 -35 -10
-91 -63 -98 -94 -15 -66 65 -130 161 -130 34 0 73 11 129 35 44 19 94 38 111
41 44 8 105 -11 161 -51 192 -137 241 -160 327 -153 38 3 68 14 107 39 l54 34
144 0 144 0 26 34 c14 19 39 48 54 64 27 29 30 29 90 23 158 -18 161 -18 197
2 71 39 100 124 66 191 -42 81 -181 159 -293 166 -37 2 -77 2 -88 -1z"/>
<path d="M2034 672 c-12 -9 -27 -35 -34 -57 -18 -56 -45 -107 -66 -126 -32
-28 -383 -64 -724 -75 -218 -7 -499 6 -679 31 -58 8 -106 15 -108 15 -6 0 -49
101 -57 134 -13 52 -15 21 -5 -49 19 -120 16 -117 176 -143 457 -73 895 -76
1351 -7 106 16 110 19 142 110 19 53 39 185 29 185 -2 0 -14 -8 -25 -18z"/>
</g>
</svg>
