<?xml version="1.0" standalone="no"?>
<!DOCTYPE svg PUBLIC "-//W3C//DTD SVG 20010904//EN"
 "http://www.w3.org/TR/2001/REC-SVG-20010904/DTD/svg10.dtd">
<svg version="1.0" xmlns="http://www.w3.org/2000/svg"
 width="512.000000pt" height="512.000000pt" viewBox="0 0 512.000000 512.000000"
 preserveAspectRatio="xMidYMid meet">

<g transform="translate(0.000000,512.000000) scale(0.100000,-0.100000)"
fill="#000000" stroke="none">
<path d="M3600 5111 c-71 -22 -157 -98 -192 -171 -55 -116 -150 -323 -169
-370 -84 -213 -168 -516 -209 -755 -12 -71 -23 -131 -24 -132 -1 -1 -44 38
-95 87 -182 175 -343 211 -541 120 -63 -30 -101 -66 -587 -553 -570 -572 -560
-559 -585 -705 -24 -141 21 -265 142 -394 l71 -77 -48 -6 c-374 -50 -717 -163
-973 -320 -52 -32 -129 -75 -170 -96 -131 -67 -210 -167 -210 -270 0 -131 93
-259 190 -259 17 0 40 -5 52 -11 18 -10 19 -17 13 -64 -8 -71 8 -127 52 -176
54 -59 85 -72 178 -73 l80 -1 1 -75 c2 -89 11 -116 59 -169 49 -54 108 -76
183 -68 75 8 83 0 75 -75 -8 -75 14 -134 68 -183 53 -47 79 -56 159 -54 37 1
72 -1 79 -5 6 -4 11 -25 11 -47 0 -146 182 -248 343 -193 26 9 70 36 97 61 42
38 62 69 116 182 94 194 145 317 197 471 51 152 118 417 142 560 28 171 14
163 116 66 137 -131 255 -176 406 -155 135 19 129 14 701 583 491 489 525 526
560 595 32 65 37 84 40 166 6 143 -26 225 -137 345 -33 35 -59 65 -58 67 2 1
49 9 105 17 236 36 503 111 683 192 99 45 251 128 294 159 17 12 60 37 96 54
82 38 160 107 188 164 29 59 29 174 0 237 -37 83 -98 130 -167 130 -53 0 -66
18 -58 76 10 73 -11 132 -64 184 -53 53 -106 71 -186 63 -64 -7 -69 1 -65 88
3 78 -17 128 -73 176 -48 42 -96 57 -166 49 -73 -8 -85 3 -75 72 8 63 -7 117
-46 165 -46 56 -82 71 -179 77 l-85 5 -7 59 c-11 89 -62 147 -161 180 -50 17
-124 20 -167 7z m113 -172 c31 -8 37 -14 37 -37 0 -52 22 -105 62 -148 51 -56
110 -78 180 -70 75 9 81 2 79 -82 -2 -86 13 -125 68 -175 55 -50 82 -59 164
-55 81 3 89 -5 81 -78 -8 -65 8 -115 54 -166 53 -59 85 -72 177 -73 l80 0 0
-80 c1 -54 6 -90 17 -110 36 -67 122 -125 186 -125 33 0 52 -30 52 -84 0 -47
-31 -81 -107 -117 -37 -17 -101 -54 -142 -81 -250 -164 -621 -283 -1016 -328
-49 -5 -97 -10 -105 -10 -9 0 -37 21 -63 46 l-46 46 42 45 c86 91 137 108 367
122 l155 9 28 32 c35 39 32 82 -8 117 -25 22 -32 23 -148 17 -67 -3 -153 -9
-192 -14 -38 -5 -71 -8 -72 -6 -2 2 17 36 42 77 98 159 144 331 145 537 l0
134 -29 29 c-38 37 -82 39 -116 4 -14 -13 -25 -32 -25 -42 0 -158 -11 -287
-29 -351 -58 -200 -163 -352 -314 -454 l-58 -39 -33 28 c-67 58 -66 54 -45
198 54 387 161 747 305 1038 30 59 54 113 54 120 0 28 61 109 93 122 39 17 34
17 80 4z m-1038 -1203 c39 -19 155 -129 546 -522 274 -275 505 -514 514 -533
27 -53 31 -139 10 -202 -15 -44 -36 -72 -116 -154 -98 -100 -98 -100 -117 -80
-11 11 -195 256 -409 545 -620 837 -673 909 -679 924 -8 20 67 44 141 45 44 1
74 -6 110 -23z m-284 -276 c51 -69 299 -404 552 -744 l459 -619 -253 -253
c-140 -140 -256 -254 -259 -254 -3 0 -23 26 -46 58 -22 31 -201 273 -398 537
-454 611 -649 875 -658 890 -7 12 489 518 503 513 4 -2 48 -59 100 -128z
m-579 -710 c358 -483 520 -702 708 -955 259 -349 244 -326 233 -344 -5 -9 -31
-29 -56 -45 -36 -22 -63 -30 -115 -34 -125 -8 -106 -23 -679 551 -548 549
-533 532 -536 639 -1 95 14 122 156 265 72 73 134 130 138 125 3 -4 71 -95
151 -202z m-189 -798 l48 -48 -60 -58 c-33 -31 -77 -64 -97 -72 -21 -9 -95
-20 -168 -25 -213 -16 -233 -19 -260 -40 -42 -33 -33 -114 14 -139 20 -11 334
3 389 17 24 6 24 6 -6 -38 -74 -108 -134 -257 -158 -398 -19 -108 -20 -271 -1
-316 25 -59 84 -73 133 -31 27 24 27 24 29 162 2 169 21 254 93 400 58 116
141 214 242 283 l62 43 45 -46 46 -45 -12 -100 c-41 -352 -171 -799 -317
-1091 -23 -47 -48 -101 -54 -121 -14 -44 -70 -104 -104 -113 -14 -3 -42 0 -63
7 -35 11 -38 15 -41 53 -4 57 -16 87 -58 133 -49 54 -108 75 -180 66 -75 -9
-84 0 -78 74 7 70 -8 120 -50 167 -50 58 -99 77 -179 72 -84 -6 -93 2 -84 72
9 69 -7 119 -55 173 -49 57 -110 79 -192 70 -67 -7 -71 -1 -68 88 2 51 -3 77
-17 106 -37 71 -113 123 -181 123 -32 0 -44 14 -55 65 -11 49 26 93 116 140
42 22 115 64 162 93 250 155 596 265 971 311 135 16 136 16 188 -37z"/>
</g>
</svg>
