<?xml version="1.0" standalone="no"?>
<!DOCTYPE svg PUBLIC "-//W3C//DTD SVG 20010904//EN"
 "http://www.w3.org/TR/2001/REC-SVG-20010904/DTD/svg10.dtd">
<svg version="1.0" xmlns="http://www.w3.org/2000/svg"
 width="250.000000pt" height="210.000000pt" viewBox="0 0 250.000000 210.000000"
 preserveAspectRatio="xMidYMid meet">

<g transform="translate(0.000000,210.000000) scale(0.100000,-0.100000)"
fill="#000000" stroke="none">
<path d="M1194 1849 c-269 -35 -493 -188 -626 -429 -27 -49 -68 -161 -68 -185
0 -24 38 -18 45 8 68 223 207 389 410 487 131 64 231 85 375 77 152 -8 280
-52 406 -137 119 -82 231 -230 281 -370 23 -67 32 -80 50 -80 22 0 22 0 6 53
-91 307 -362 536 -683 576 -93 12 -107 12 -196 0z"/>
<path d="M1236 1703 c5 -5 12 -12 16 -18 4 -6 8 -2 8 8 0 9 -7 17 -17 17 -9 0
-12 -3 -7 -7z"/>
<path d="M1318 1697 c8 -9 9 -37 4 -85 -7 -64 -6 -72 9 -72 14 0 18 13 21 78
4 76 -1 92 -31 92 -10 0 -11 -3 -3 -13z"/>
<path d="M1174 1694 c-8 -3 -7 -20 3 -56 7 -29 13 -65 13 -81 0 -22 4 -28 16
-23 9 3 17 6 18 6 1 0 -4 30 -11 67 -8 36 -12 72 -9 80 5 13 -8 16 -30 7z"/>
<path d="M1110 1673 c0 -11 3 -14 8 -7 4 6 14 14 22 17 10 4 8 6 -7 6 -16 1
-23 -5 -23 -16z"/>
<path d="M1442 1668 c-1 -13 -10 -49 -20 -80 -18 -54 -18 -57 -1 -61 14 -4 19
3 24 34 4 22 10 39 13 39 4 0 8 14 9 32 1 17 7 35 14 38 7 5 5 9 -6 14 -26 10
-31 8 -33 -16z"/>
<path d="M1525 1660 c3 -5 11 -10 16 -10 6 0 7 5 4 10 -3 6 -11 10 -16 10 -6
0 -7 -4 -4 -10z"/>
<path d="M1017 1630 c25 -10 40 -47 24 -63 -14 -14 63 -61 86 -53 13 5 9 11
-18 25 -26 14 -34 25 -35 48 -1 43 -11 53 -47 52 -28 0 -30 -1 -10 -9z"/>
<path d="M1600 1624 c0 -22 -60 -124 -73 -124 -7 -1 -1 -7 12 -14 24 -13 25
-12 57 54 18 37 37 69 43 71 6 2 -1 9 -14 16 -20 9 -25 8 -25 -3z"/>
<path d="M951 1611 c-7 -5 -9 -10 -3 -12 13 -5 72 -125 65 -133 -4 -3 -2 -6 3
-6 14 0 52 29 39 30 -5 0 -26 29 -45 65 -37 69 -38 69 -59 56z"/>
<path d="M1499 1602 c-14 -6 -14 -9 -4 -19 10 -9 14 -8 18 8 3 10 4 19 4 18
-1 0 -9 -3 -18 -7z"/>
<path d="M1663 1505 c-51 -62 -52 -63 -33 -80 19 -17 20 -17 20 2 0 11 9 28
20 38 19 17 21 17 39 1 15 -14 21 -15 27 -4 4 7 3 10 -1 5 -5 -4 -17 0 -27 10
-18 16 -18 17 7 43 20 21 23 29 13 37 -10 8 -26 -6 -65 -52z"/>
<path d="M854 1537 c-11 -12 -12 -17 -4 -11 8 6 22 13 30 16 9 3 10 7 3 11 -6
4 -19 -3 -29 -16z"/>
<path d="M1764 1523 c10 -12 15 -27 11 -35 -7 -10 -5 -11 6 0 11 10 9 16 -11
35 -24 22 -24 22 -6 0z"/>
<path d="M813 1502 c-9 -6 3 -25 42 -67 29 -32 51 -64 48 -69 -3 -6 15 9 41
34 25 24 46 48 46 52 0 5 -12 -5 -27 -22 -27 -29 -29 -30 -50 -15 -29 20 -30
52 -2 60 11 4 18 9 15 12 -3 3 -17 -2 -31 -11 -24 -16 -26 -16 -48 9 -14 16
-27 22 -34 17z"/>
<path d="M1187 1450 c-97 -25 -210 -108 -255 -189 -19 -34 -21 -41 -8 -41 9 0
22 12 30 28 18 35 69 87 121 122 169 116 421 70 535 -98 43 -63 72 -72 38 -11
-33 60 -109 126 -186 162 -56 26 -80 31 -152 34 -47 1 -102 -2 -123 -7z"/>
<path d="M1786 1390 c-33 -21 -64 -37 -68 -34 -4 3 -3 -6 4 -21 6 -14 14 -21
17 -16 11 18 124 81 133 75 6 -4 5 3 -1 15 -7 11 -15 21 -19 20 -4 0 -34 -18
-66 -39z"/>
<path d="M729 1403 c-13 -17 -13 -17 6 -3 11 8 22 16 24 17 2 2 0 3 -6 3 -6 0
-17 -8 -24 -17z"/>
<path d="M1685 1380 c4 -6 11 -8 16 -5 14 9 11 15 -7 15 -8 0 -12 -5 -9 -10z"/>
<path d="M700 1333 c-1 -74 91 -116 142 -65 l22 22 -31 -12 c-44 -16 -98 9
-118 55 l-14 32 -1 -32z"/>
<path d="M867 1340 c3 -11 7 -20 9 -20 2 0 4 9 4 20 0 11 -4 20 -9 20 -5 0 -7
-9 -4 -20z"/>
<path d="M1891 1342 c-1 -13 -13 -34 -28 -48 -22 -20 -36 -25 -66 -22 -39 4
-39 4 -17 -14 29 -23 61 -23 92 2 28 22 39 56 27 86 -7 17 -8 17 -8 -4z"/>
<path d="M375 1138 c-50 -28 -47 -64 10 -115 48 -43 57 -76 26 -93 -27 -14
-29 -13 -56 16 -26 29 -34 21 -11 -11 8 -11 26 -18 44 -18 83 0 99 98 22 138
-33 17 -47 50 -30 70 17 21 36 19 60 -7 19 -21 21 -21 14 -3 -13 36 -42 44
-79 23z"/>
<path d="M574 1140 c-12 -4 -31 -21 -43 -36 -26 -33 -29 -109 -5 -143 16 -22
81 -57 91 -47 2 2 -5 7 -16 11 -29 9 -51 56 -51 109 0 92 51 135 97 82 32 -37
34 -145 3 -176 -14 -14 -16 -20 -6 -20 8 0 26 14 40 31 49 58 28 166 -35 188
-37 13 -46 13 -75 1z"/>
<path d="M810 1108 c-6 -24 -20 -75 -31 -114 -22 -80 -23 -92 -9 -78 6 6 22
53 36 105 13 52 27 102 30 112 3 9 1 17 -5 17 -6 0 -15 -19 -21 -42z"/>
<path d="M1270 1132 c-42 -21 -60 -53 -60 -109 0 -33 6 -48 31 -72 17 -17 37
-31 44 -31 7 0 22 -3 32 -6 10 -3 4 3 -14 14 -17 12 -37 30 -42 41 -16 29 -13
97 4 131 25 49 91 53 113 7 8 -17 11 -18 11 -5 2 45 -58 61 -119 30z"/>
<path d="M228 1039 c3 -76 0 -104 -10 -110 -8 -6 4 -9 32 -9 28 0 40 3 32 9
-10 6 -13 34 -10 110 l3 101 -25 0 -25 0 3 -101z"/>
<path d="M898 1128 c19 -19 16 -173 -4 -192 -14 -15 -11 -16 28 -16 27 0 38 3
30 9 -10 6 -13 34 -10 110 l3 101 -29 0 c-23 0 -27 -3 -18 -12z"/>
<path d="M1028 1039 c3 -76 0 -104 -10 -110 -8 -5 19 -9 64 -9 69 0 77 2 83
21 4 11 5 23 2 26 -3 2 -8 -5 -12 -17 -5 -17 -13 -21 -43 -18 -37 3 -37 3 -40
52 l-3 48 30 -4 c19 -3 31 0 31 7 0 7 -11 10 -30 7 -30 -4 -30 -4 -30 43 l0
47 40 -4 c22 -2 40 0 40 4 0 5 -28 8 -62 8 l-63 0 3 -101z"/>
<path d="M2275 1131 c-17 -3 -31 -14 -33 -23 -3 -15 1 -16 39 -5 23 7 44 18
47 25 4 13 -5 13 -53 3z"/>
<path d="M1560 1121 c-21 -6 -22 -8 -7 -14 14 -5 17 -20 17 -91 0 -58 -4 -86
-12 -89 -7 -3 5 -5 27 -5 22 0 34 2 28 5 -9 3 -13 34 -13 104 0 54 -3 99 -7
98 -5 -1 -19 -4 -33 -8z"/>
<path d="M1696 1114 c-3 -9 -6 -16 -6 -17 0 -1 23 0 51 2 31 2 54 -1 59 -8 4
-7 11 -2 18 14 l12 25 -64 0 c-49 0 -65 -4 -70 -16z"/>
<path d="M1887 1101 c-24 -42 -23 -121 4 -155 11 -14 25 -26 31 -26 6 0 5 7
-3 16 -9 10 -13 43 -13 89 0 46 4 79 13 89 11 13 11 16 -1 16 -7 0 -21 -13
-31 -29z"/>
<path d="M1948 1118 c7 -7 12 -43 12 -93 0 -50 -5 -86 -12 -93 -7 -7 -8 -12
-2 -12 6 0 19 9 30 21 14 16 19 36 19 84 0 48 -5 68 -19 84 -11 12 -24 21 -30
21 -6 0 -5 -5 2 -12z"/>
<path d="M2070 1119 c-12 -8 -11 -9 6 -5 13 4 27 -1 39 -14 16 -17 17 -25 7
-58 -6 -21 -28 -57 -48 -80 l-36 -43 63 3 c48 2 65 7 67 18 2 12 -6 15 -38 12
-22 -2 -40 -1 -40 3 0 4 16 25 35 48 37 43 46 92 23 115 -15 15 -58 15 -78 1z"/>
<path d="M2231 1058 c-1 -23 3 -28 23 -28 80 0 68 -117 -11 -121 -23 -1 -24
-2 -6 -6 27 -5 79 21 93 46 26 50 -10 111 -66 111 -12 0 -25 6 -27 13 -3 6 -6
0 -6 -15z"/>
<path d="M1750 990 c-23 -45 -40 -83 -38 -86 3 -2 24 33 47 77 23 45 40 83 38
86 -3 2 -23 -33 -47 -77z"/>
<path d="M1361 939 c-16 -13 -18 -19 -8 -19 15 0 43 27 36 34 -2 3 -15 -4 -28
-15z"/>
<path d="M500 839 c0 -5 10 -37 23 -72 119 -327 421 -537 774 -537 347 0 650
219 769 557 19 55 17 68 -13 59 -11 -4 -25 -27 -36 -62 -55 -175 -227 -361
-409 -443 -113 -51 -180 -65 -323 -64 -119 0 -138 3 -225 32 -231 78 -397 233
-486 454 -25 62 -37 81 -53 82 -12 1 -21 -2 -21 -6z"/>
<path d="M920 845 c0 -21 71 -103 122 -141 96 -70 213 -97 332 -74 102 19 217
96 268 178 36 58 9 48 -53 -21 -43 -48 -78 -75 -127 -99 -63 -31 -73 -33 -172
-33 -101 0 -109 2 -174 34 -44 23 -85 54 -118 90 -49 54 -78 79 -78 66z"/>
<path d="M750 785 c-25 -14 -49 -26 -53 -27 -5 -2 -5 -11 -2 -20 6 -15 8 -15
25 2 10 10 34 24 54 31 20 7 36 19 36 26 0 17 -7 16 -60 -12z"/>
<path d="M1735 703 c-2 -7 -1 -12 3 -12 36 6 85 -4 101 -20 17 -17 20 -17 25
-4 7 18 9 16 -24 33 -32 17 -98 19 -105 3z"/>
<path d="M860 666 c0 -8 -10 -22 -22 -30 -12 -9 -19 -16 -15 -16 4 0 0 -11 -8
-24 -9 -13 -12 -27 -7 -30 5 -3 23 16 39 42 45 71 46 72 29 72 -9 0 -16 -6
-16 -14z"/>
<path d="M1705 660 c-19 -8 -19 -9 2 -9 13 -1 24 -10 29 -23 8 -28 22 -38 54
-38 27 0 17 16 -15 22 -10 2 -22 14 -25 27 -6 28 -17 33 -45 21z"/>
<path d="M1664 629 c-3 -6 15 -32 40 -59 25 -27 48 -44 52 -39 3 6 -2 20 -13
31 -47 53 -73 76 -79 67z"/>
<path d="M909 582 c-13 -19 -30 -41 -37 -49 -7 -7 -10 -17 -7 -23 8 -13 25
-13 25 1 0 10 48 79 63 90 5 3 2 9 -5 12 -9 3 -24 -9 -39 -31z"/>
<path d="M981 568 c0 -9 -10 -20 -21 -23 -11 -4 -18 -10 -15 -15 3 -5 -3 -18
-14 -29 -21 -21 -14 -35 13 -25 9 3 16 15 16 26 0 12 7 26 16 33 9 6 14 20 11
31 -4 15 -5 15 -6 2z"/>
<path d="M1610 575 c0 -2 11 -15 25 -29 14 -14 25 -37 25 -51 0 -15 4 -24 10
-20 27 17 -1 88 -40 98 -11 3 -20 4 -20 2z"/>
<path d="M1548 534 c-27 -27 9 -94 50 -93 24 0 25 1 7 8 -21 9 -42 42 -47 74
-2 11 -6 15 -10 11z"/>
<path d="M1018 513 c-27 -31 -30 -58 -10 -83 l19 -24 -5 33 c-3 23 2 41 17 62
24 33 6 43 -21 12z"/>
<path d="M1108 490 c3 -22 -2 -41 -17 -61 -16 -21 -18 -29 -8 -29 40 0 65 76
35 106 -13 13 -14 11 -10 -16z"/>
<path d="M1450 503 c0 -24 35 -123 42 -121 5 2 10 6 10 8 2 15 -37 120 -44
120 -4 0 -8 -3 -8 -7z"/>
<path d="M1173 428 c-7 -53 -2 -81 12 -67 8 10 14 129 6 129 -5 0 -13 -28 -18
-62z"/>
<path d="M1244 465 c3 -9 -3 -24 -13 -34 -19 -19 -19 -20 0 -50 24 -40 42 -40
22 0 -14 27 -14 32 1 48 17 18 13 51 -6 51 -6 0 -8 -7 -4 -15z"/>
<path d="M1340 465 c0 -8 4 -15 9 -15 10 0 37 -69 33 -82 -1 -5 5 -8 13 -8 19
0 19 0 -9 65 -24 52 -46 72 -46 40z"/>
<path d="M1311 364 c0 -11 3 -14 6 -6 3 7 2 16 -1 19 -3 4 -6 -2 -5 -13z"/>
</g>
</svg>
