<?xml version="1.0" standalone="no"?>
<!DOCTYPE svg PUBLIC "-//W3C//DTD SVG 20010904//EN"
 "http://www.w3.org/TR/2001/REC-SVG-20010904/DTD/svg10.dtd">
<svg version="1.0" xmlns="http://www.w3.org/2000/svg"
 width="174.000000pt" height="148.000000pt" viewBox="0 0 174.000000 148.000000"
 preserveAspectRatio="xMidYMid meet">

<g transform="translate(0.000000,148.000000) scale(0.100000,-0.100000)"
fill="#000000" stroke="none">
<path d="M676 1471 c-4 -6 -27 -11 -52 -11 -59 0 -183 -42 -258 -87 -129 -79
-245 -216 -300 -354 -153 -389 77 -826 494 -936 86 -22 235 -22 320 1 76 20
200 75 200 88 0 6 -18 45 -41 88 l-40 78 -64 -29 c-149 -67 -339 -57 -480 25
-100 59 -198 193 -224 306 -15 64 -13 206 3 266 44 166 174 297 345 348 67 20
207 21 277 2 167 -44 316 -195 353 -357 19 -81 13 -227 -12 -301 l-23 -67 50
-90 c28 -50 56 -91 62 -91 13 0 73 121 107 214 19 53 22 81 22 206 0 142 -1
147 -35 235 -43 110 -93 186 -171 262 -105 101 -240 173 -369 194 -109 19
-157 22 -164 10z m44 -102 c0 -52 -3 -70 -12 -67 -8 3 -14 29 -16 71 -2 55 0
67 13 67 12 0 15 -14 15 -71z m61 38 l0 -22 16 23 c8 12 22 22 29 22 18 0 18
-5 -2 -35 -12 -18 -13 -31 -6 -59 6 -19 8 -37 4 -40 -8 -8 -32 14 -32 30 0 8
-4 14 -10 14 -5 0 -10 -9 -10 -21 0 -12 -5 -19 -12 -16 -9 3 -12 22 -9 63 2
32 5 62 8 67 8 13 23 -3 24 -26z m-122 -34 c14 -71 14 -73 -3 -73 -8 0 -17 11
-20 25 -9 36 -30 32 -22 -5 4 -22 2 -30 -8 -30 -17 0 -23 16 -32 80 -6 42 -4
50 10 50 9 0 16 -8 16 -20 0 -11 6 -20 14 -20 9 0 12 8 8 25 -3 18 0 25 10 25
10 0 19 -18 27 -57z m247 12 c-3 -13 -2 -26 4 -30 5 -3 12 6 16 20 6 25 18 32
28 16 6 -9 -21 -100 -34 -115 -15 -16 -31 4 -20 25 6 11 8 24 4 31 -4 7 -14
-2 -25 -23 -14 -28 -19 -31 -24 -17 -7 16 7 73 27 111 12 24 31 10 24 -18z
m-377 1 c17 -20 -5 -32 -26 -14 -15 12 -16 10 -10 -21 4 -19 12 -41 19 -48 10
-13 13 -12 20 6 10 29 28 26 28 -4 0 -26 -32 -47 -56 -38 -14 5 -44 68 -44 91
0 38 46 56 69 28z m505 -27 c28 -13 25 -33 -4 -24 -21 7 -35 -21 -14 -29 21
-8 17 -28 -5 -21 -27 8 -37 -13 -15 -30 29 -21 10 -29 -25 -11 l-31 16 27 55
c30 60 30 60 67 44z m-629 -81 c22 -33 31 -56 25 -62 -6 -6 -16 0 -29 15 -23
28 -38 20 -21 -11 7 -14 8 -26 3 -31 -6 -6 -24 11 -46 43 -26 36 -34 55 -26
63 7 7 15 3 27 -13 22 -29 37 -17 18 14 -14 21 -12 34 5 34 5 0 24 -23 44 -52z
m724 18 c19 -20 21 -28 12 -45 -7 -12 -16 -21 -21 -21 -6 0 -10 -6 -10 -12 0
-7 -7 -22 -15 -32 -12 -16 -18 -17 -27 -8 -9 9 -9 15 0 24 7 7 12 19 12 27 0
11 -6 9 -24 -8 -40 -37 -40 -6 0 49 20 27 39 50 43 50 4 0 18 -11 30 -24z
m-847 -66 c7 -21 22 -36 46 -46 27 -11 33 -17 24 -26 -9 -9 -18 -9 -37 0 -38
17 -44 14 -15 -8 18 -14 22 -22 14 -30 -14 -14 -110 72 -99 89 5 9 12 7 27 -6
21 -18 21 -18 14 10 -6 26 -2 47 10 47 3 0 10 -14 16 -30z m925 -37 c-22 -22
-32 -11 -16 19 12 22 11 23 -8 5 -25 -22 -37 -12 -15 14 16 19 17 19 36 -1 19
-19 19 -21 3 -37z m-993 -88 c30 -18 43 -21 53 -13 22 18 27 1 9 -27 l-16 -25
-55 36 c-30 20 -52 40 -49 45 8 13 15 11 58 -16z m990 -37 c-6 -20 -3 -20 41
6 34 20 50 25 58 17 12 -12 15 -10 -45 -44 -57 -33 -66 -33 -80 -2 -8 19 -8
28 2 40 16 20 33 9 24 -17z m-1011 -29 c62 -13 71 -24 31 -39 -21 -8 -24 -13
-14 -25 6 -8 9 -19 5 -24 -8 -15 -114 69 -108 86 6 16 14 16 86 2z m1145 -21
c17 -17 15 -55 -3 -61 -18 -7 -27 6 -19 27 3 9 1 16 -5 16 -6 0 -11 -11 -11
-24 0 -14 -9 -32 -22 -40 -29 -21 -58 -4 -58 34 0 32 18 50 31 29 4 -8 3 -16
-3 -20 -6 -4 -7 -12 -4 -18 11 -17 26 -3 26 23 0 26 17 46 40 46 9 0 21 -5 28
-12z m-1238 -72 c0 -9 19 -20 47 -28 25 -7 48 -19 51 -26 5 -15 -21 -16 -68
-2 -27 8 -36 7 -43 -5 -15 -28 -25 -6 -15 35 10 39 28 55 28 26z m1268 -38
c17 -17 15 -58 -3 -65 -22 -8 -30 4 -16 21 16 19 2 26 -38 17 -35 -7 -56 -31
-27 -31 9 0 16 -7 16 -15 0 -30 -43 -14 -54 21 -8 26 11 43 57 54 47 11 52 11
65 -2z m-1262 -70 c4 -6 2 -14 -4 -16 -6 -2 -8 -10 -5 -18 6 -16 -32 -20 -42
-4 -3 6 2 10 12 10 15 0 16 2 3 10 -13 9 -13 11 0 20 20 13 27 12 36 -2z m264
-473 c15 -18 6 -45 -16 -45 -11 0 -14 5 -9 18 3 9 3 13 -2 7 -5 -5 -19 -23
-33 -40 -14 -16 -18 -24 -8 -17 23 18 36 -5 14 -26 -15 -15 -18 -15 -37 5
l-22 21 39 46 c41 49 54 55 74 31z m61 -45 c24 -13 25 -28 2 -26 -13 1 -18 -6
-17 -22 0 -13 -4 -21 -11 -18 -17 6 -36 -29 -22 -43 6 -6 8 -13 5 -17 -7 -7
-48 17 -48 29 0 8 63 107 68 107 2 0 12 -5 23 -10z m75 -44 c19 -15 19 -15 -4
-58 -12 -24 -22 -49 -22 -55 0 -7 -7 -13 -15 -13 -8 0 -15 5 -15 11 0 5 -5 7
-10 4 -22 -14 -20 26 4 74 29 56 33 58 62 37z m448 -65 c19 -52 19 -54 1 -67
-31 -23 -41 -17 -59 39 -9 28 -20 57 -22 64 -5 12 19 22 46 19 8 -1 23 -25 34
-55z m-364 38 c11 -8 12 -12 3 -16 -7 -2 -20 -29 -29 -58 -10 -37 -19 -52 -28
-49 -12 4 -12 14 -1 56 8 27 11 56 8 64 -6 17 25 19 47 3z m265 -9 c3 -5 -1
-10 -9 -10 -18 0 -19 -2 -10 -24 3 -9 14 -16 23 -16 15 -1 15 -1 -1 -10 -19
-12 -13 -50 9 -50 8 0 11 -4 8 -10 -3 -5 -17 -10 -29 -10 -20 0 -25 7 -30 43
-4 23 -9 52 -12 64 -4 15 0 23 13 26 29 8 32 7 38 -3z m-205 -22 c-1 -45 -25
-118 -37 -110 -10 7 -4 78 12 120 8 20 25 13 25 -10z m66 0 c-19 -11 -21 -34
-3 -42 10 -5 10 -7 0 -12 -7 -3 -13 -19 -13 -35 0 -20 -5 -29 -16 -29 -13 0
-15 11 -13 63 1 34 3 65 5 68 2 4 15 4 30 1 22 -4 24 -6 10 -14z m65 -44 c3
-32 2 -63 -3 -69 -15 -17 -28 17 -28 78 0 79 23 72 31 -9z"/>
<path d="M1097 1273 c-10 -9 -9 -23 2 -23 5 0 11 7 15 15 5 15 -5 20 -17 8z"/>
<path d="M160 1010 c8 -5 20 -10 25 -10 6 0 3 5 -5 10 -8 5 -19 10 -25 10 -5
0 -3 -5 5 -10z"/>
<path d="M476 245 c-9 -26 -7 -32 5 -12 6 10 9 21 6 23 -2 3 -7 -2 -11 -11z"/>
<path d="M430 1110 c0 -11 7 -20 15 -20 12 0 15 -14 15 -65 0 -52 -3 -65 -16
-65 -10 0 -14 -7 -12 -22 3 -21 8 -23 63 -23 55 0 60 2 63 23 2 15 -2 22 -12
22 -13 0 -16 13 -16 65 0 51 3 65 15 65 8 0 15 9 15 20 0 18 -7 20 -65 20 -58
0 -65 -2 -65 -20z"/>
<path d="M610 1110 c-11 -11 -20 -30 -20 -43 0 -24 40 -67 64 -67 28 0 76 -23
76 -36 0 -22 -66 -18 -90 6 -31 31 -50 26 -50 -16 0 -32 2 -35 28 -33 15 2 43
0 62 -5 45 -9 87 6 101 38 18 38 -12 73 -77 92 -33 9 -54 21 -54 30 0 19 64
19 84 -1 26 -26 46 -19 46 18 l0 32 -76 2 c-63 2 -78 -1 -94 -17z"/>
<path d="M859 1115 c-56 -30 -64 -129 -14 -172 36 -32 72 -38 119 -22 84 29
98 144 23 189 -37 23 -91 25 -128 5z m91 -40 c20 -24 16 -96 -6 -112 -23 -17
-29 -16 -48 3 -19 18 -22 94 -4 112 16 16 43 15 58 -3z"/>
<path d="M404 870 c-36 -14 -54 -50 -54 -107 0 -69 25 -98 76 -88 l34 6 0 -46
c0 -38 -3 -45 -20 -45 -13 0 -20 7 -20 20 0 16 -7 20 -35 20 -41 0 -44 -12
-10 -45 18 -19 35 -25 65 -25 30 0 47 6 65 25 23 22 25 31 25 129 0 95 -2 107
-22 130 -26 28 -72 39 -104 26z m54 -99 c3 -56 1 -62 -15 -59 -14 2 -19 14
-21 52 -4 56 3 79 21 74 7 -3 13 -28 15 -67z"/>
<path d="M624 870 c-44 -17 -54 -47 -54 -158 0 -96 2 -105 25 -127 27 -28 89
-34 119 -12 33 24 47 161 25 240 -8 30 -18 42 -44 53 -39 16 -42 16 -71 4z
m51 -156 c0 -99 -3 -119 -15 -119 -12 0 -16 20 -18 109 -3 117 1 140 21 133 9
-3 12 -36 12 -123z"/>
<path d="M844 870 c-44 -18 -54 -48 -54 -156 0 -87 3 -105 21 -128 28 -35 95
-37 127 -3 20 21 22 34 22 133 0 102 -2 112 -22 132 -28 25 -66 34 -94 22z
m54 -153 c2 -99 0 -118 -13 -123 -25 -10 -30 3 -34 92 -4 109 4 156 27 152 15
-3 17 -20 20 -121z"/>
<path d="M1070 855 c-6 -8 -27 -20 -46 -27 -39 -14 -40 -32 -1 -36 l27 -3 0
-115 0 -115 33 3 32 3 3 153 c2 144 1 152 -17 152 -10 0 -24 -7 -31 -15z"/>
<path d="M1506 560 c-88 -104 -163 -190 -168 -190 -4 0 -8 -4 -8 -9 0 -12 -56
-71 -67 -71 -5 0 -39 54 -76 120 -38 66 -70 120 -72 120 -2 0 -44 -20 -94 -44
-85 -41 -89 -45 -62 -51 31 -7 61 -35 81 -75 33 -69 185 -340 190 -340 3 0 30
42 60 93 30 50 115 193 189 317 74 124 147 246 162 273 16 26 27 47 26 47 -1
0 -74 -85 -161 -190z"/>
</g>
</svg>
