<?xml version="1.0" standalone="no"?>
<!DOCTYPE svg PUBLIC "-//W3C//DTD SVG 20010904//EN"
 "http://www.w3.org/TR/2001/REC-SVG-20010904/DTD/svg10.dtd">
<svg version="1.0" xmlns="http://www.w3.org/2000/svg"
 width="563.000000pt" height="393.000000pt" viewBox="0 0 563.000000 393.000000"
 preserveAspectRatio="xMidYMid meet">

<g transform="translate(0.000000,393.000000) scale(0.100000,-0.100000)"
fill="#000000" stroke="none">
<path d="M2812 3440 c-270 -49 -473 -145 -597 -282 l-47 -52 -101 -2 c-251 -6
-406 -107 -571 -374 -137 -223 -221 -416 -262 -605 -24 -114 -24 -343 0 -450
55 -242 159 -440 307 -586 123 -122 235 -181 424 -223 94 -22 107 -27 137 -61
18 -21 36 -43 40 -50 13 -22 141 -122 208 -163 157 -94 301 -132 505 -132 154
0 238 14 395 66 173 57 425 195 565 309 22 17 103 74 180 125 77 52 170 123
206 160 117 116 197 264 239 442 55 237 50 683 -10 811 -21 42 -44 34 -74 -27
-32 -64 -77 -112 -115 -119 -65 -13 -151 28 -196 93 -29 42 -61 52 -72 23 -40
-122 -118 -203 -193 -203 -36 0 -96 23 -124 48 -30 27 -56 93 -56 145 l0 47
-38 0 c-111 0 -204 65 -217 152 -8 55 5 110 52 211 l36 78 -22 39 c-24 43 -38
132 -27 175 9 34 78 109 116 125 19 8 30 20 30 32 0 44 -207 210 -311 249 -66
25 -263 25 -407 -1z m408 -55 c19 -10 59 -34 89 -54 l53 -36 -53 -11 c-137
-27 -203 -102 -204 -229 0 -141 81 -228 220 -235 27 -1 24 -4 -31 -30 -116
-53 -174 -126 -174 -217 0 -66 15 -113 53 -170 55 -82 127 -107 252 -86 28 4
34 8 21 13 -10 3 10 6 45 5 l64 -1 6 -45 c16 -108 88 -180 196 -195 93 -12
179 48 249 174 1 1 15 -10 32 -26 109 -102 269 -93 335 19 l25 41 12 -104 c16
-127 8 -403 -16 -538 -36 -206 -101 -338 -234 -470 -52 -52 -109 -103 -127
-113 l-32 -18 14 35 c18 43 19 76 3 76 -7 0 -31 -26 -53 -56 -45 -64 -141
-157 -211 -205 -104 -71 -277 -141 -422 -169 -106 -21 -93 -51 20 -45 37 2 68
2 68 0 0 -7 -91 -45 -194 -81 -352 -123 -704 -72 -970 138 -70 55 -76 63 -55
66 14 2 58 -11 99 -28 85 -34 90 -35 90 -17 0 12 -99 83 -155 110 -16 8 -66
26 -110 41 -112 36 -194 88 -277 173 -67 68 -188 220 -188 236 0 4 -7 7 -15 7
-8 0 -15 -7 -15 -14 0 -36 115 -257 145 -278 6 -5 6 -8 0 -8 -5 0 4 -12 20
-25 45 -37 17 -30 -54 13 -131 79 -241 214 -330 404 -161 341 -145 684 49
1068 68 136 165 297 216 358 73 88 188 154 313 179 63 13 97 14 217 4 78 -6
165 -11 193 -11 28 0 51 -3 51 -6 0 -3 -8 -18 -19 -32 -10 -15 -37 -62 -61
-104 -38 -70 -44 -77 -66 -72 -66 17 17 -51 121 -98 77 -34 201 -32 277 5 62
31 143 110 117 115 -8 1 -21 18 -27 37 -7 18 -35 64 -63 102 l-49 68 37 8 c78
16 112 28 135 46 33 28 18 34 -28 12 -21 -10 -68 -23 -104 -30 -58 -10 -66 -9
-85 8 -25 23 -59 41 -79 41 -8 0 -29 -14 -46 -31 l-31 -32 -117 12 c-64 7
-119 15 -122 18 -9 9 109 112 172 148 175 103 440 167 663 161 80 -3 120 -8
145 -21z m194 -197 c-20 -11 -39 -17 -42 -14 -3 3 -1 6 4 6 5 0 20 10 34 21
l25 20 -25 -6 c-17 -4 -21 -3 -11 3 9 7 10 12 2 16 -6 4 -11 12 -11 18 0 7 13
-1 30 -17 l29 -28 -35 -19z m-956 -258 c7 -11 21 -42 32 -69 17 -45 18 -49 2
-47 -21 4 -48 50 -57 99 -8 41 3 49 23 17z m911 -104 c9 -11 9 -16 -1 -22 -7
-4 -10 -4 -6 1 4 4 3 14 -3 22 -6 7 -9 13 -6 13 2 0 10 -6 16 -14z m36 -484
c-3 -3 -11 0 -18 7 -9 10 -8 11 6 5 10 -3 15 -9 12 -12z"/>
<path d="M1975 2510 c-42 -21 -110 -92 -187 -197 l-46 -63 -35 48 c-19 26 -40
58 -47 71 -8 15 -15 20 -22 13 -12 -12 18 -74 78 -159 76 -107 170 -169 273
-179 64 -7 148 9 192 35 38 23 162 141 155 148 -3 3 -23 -4 -44 -15 l-39 -20
-22 72 c-42 132 -110 231 -174 255 -37 14 -35 14 -82 -9z"/>
<path d="M2865 2378 c-50 -59 -99 -161 -92 -190 14 -55 154 -86 235 -52 20 8
38 14 39 12 2 -2 10 7 18 20 9 12 21 20 26 16 5 -3 9 -2 8 3 -1 4 1 16 5 26
14 29 -4 70 -47 111 -45 43 -124 96 -143 96 -7 0 -29 -19 -49 -42z"/>
<path d="M3010 2125 c-14 -8 -20 -14 -15 -14 6 0 21 6 35 14 14 8 21 14 15 14
-5 0 -21 -6 -35 -14z"/>
<path d="M2903 2093 c9 -2 23 -2 30 0 6 3 -1 5 -18 5 -16 0 -22 -2 -12 -5z"/>
<path d="M3384 2065 c-55 -23 -103 -110 -119 -218 -4 -26 -9 -47 -11 -47 -3 0
-27 11 -54 25 -38 19 -50 22 -50 11 0 -21 146 -92 227 -110 87 -19 132 -20
198 -2 69 18 106 39 159 88 63 60 113 184 79 195 -8 3 -13 -4 -13 -16 0 -34
-16 -33 -88 3 -140 70 -265 98 -328 71z m64 -220 c92 -53 89 -68 -6 -22 -42
20 -114 76 -99 77 4 0 51 -25 105 -55z"/>
<path d="M1583 1701 c-83 -68 -104 -97 -101 -138 3 -44 21 -58 89 -72 96 -20
119 3 119 119 0 51 -15 107 -35 128 -10 11 -23 4 -72 -37z"/>
<path d="M2437 1695 c-20 -8 -82 -35 -137 -61 l-100 -47 0 -67 c0 -50 6 -78
23 -113 13 -25 20 -44 16 -41 -5 3 -6 -2 -3 -10 3 -9 9 -14 13 -11 4 2 27 -6
51 -17 93 -46 266 -33 354 27 50 34 57 32 16 -5 -18 -16 -36 -28 -38 -25 -3 3
-10 1 -16 -4 -26 -20 -87 -31 -181 -32 -62 -1 -92 -5 -80 -10 42 -16 168 -9
228 14 73 28 129 71 120 94 -4 10 -2 14 4 10 5 -3 10 -1 10 6 0 7 4 19 7 27 8
20 -86 181 -140 237 -45 48 -76 54 -147 28z m34 -149 c-5 -26 -14 -53 -21 -59
-18 -17 -7 76 11 96 19 21 20 17 10 -37z"/>
<path d="M3636 1439 c-30 -75 -33 -199 -5 -199 6 0 7 5 4 10 -4 6 14 10 47 10
34 0 68 7 93 20 46 23 49 24 39 8 -5 -9 -3 -9 9 1 9 7 14 17 11 22 -3 5 2 12
10 15 22 9 32 72 14 90 -18 19 -145 64 -179 64 -22 0 -30 -7 -43 -41z"/>
<path d="M2260 1332 c0 -11 60 -45 67 -38 4 3 4 7 2 9 -32 19 -69 34 -69 29z"/>
<path d="M3770 1265 c-14 -8 -20 -14 -14 -15 5 0 19 7 30 15 24 18 16 19 -16
0z"/>
<path d="M3653 1243 c8 -7 77 -6 85 2 3 3 -16 5 -43 5 -27 0 -45 -3 -42 -7z"/>
<path d="M3005 1191 c-36 -21 -79 -70 -102 -114 -27 -53 -63 -169 -56 -181 4
-6 6 -18 5 -27 -2 -10 16 -25 50 -42 123 -61 238 -63 354 -4 88 44 134 94 134
143 0 50 -24 96 -76 144 -97 89 -237 126 -309 81z"/>
<path d="M1315 825 c-5 -2 -29 -9 -53 -15 -23 -6 -58 -25 -77 -41 -29 -26 -35
-38 -35 -71 0 -34 7 -46 53 -92 67 -67 193 -130 293 -147 63 -11 77 -11 118 5
65 25 89 59 83 118 -5 60 -39 110 -125 185 l-66 58 -90 2 c-50 1 -95 0 -101
-2z m175 -60 c71 -49 148 -163 134 -199 -10 -25 -60 -36 -115 -26 -122 23
-310 132 -297 172 11 32 129 75 212 77 17 1 46 -10 66 -24z"/>
<path d="M1840 698 c-23 -25 -25 -43 -6 -76 39 -71 151 -83 175 -19 30 80
-110 158 -169 95z m110 -28 c40 -40 16 -75 -39 -56 -39 13 -57 36 -48 60 9 23
62 21 87 -4z"/>
</g>
</svg>
