<?xml version="1.0" standalone="no"?>
<!DOCTYPE svg PUBLIC "-//W3C//DTD SVG 20010904//EN"
 "http://www.w3.org/TR/2001/REC-SVG-20010904/DTD/svg10.dtd">
<svg version="1.0" xmlns="http://www.w3.org/2000/svg"
 width="250.000000pt" height="250.000000pt" viewBox="0 0 250.000000 250.000000"
 preserveAspectRatio="xMidYMid meet">

<g transform="translate(0.000000,250.000000) scale(0.100000,-0.100000)"
fill="#000000" stroke="none">
<path d="M1592 2094 c-29 -14 -62 -40 -73 -57 -12 -18 -44 -54 -70 -82 -54
-57 -109 -158 -116 -216 -4 -24 1 -56 10 -82 9 -23 21 -71 27 -108 15 -84 44
-134 104 -180 148 -112 285 -134 436 -69 36 15 75 31 88 35 27 8 56 46 113
150 39 72 43 86 43 150 l1 70 -50 -3 c-58 -4 -94 17 -114 67 -10 22 -21 30
-51 35 -52 8 -83 47 -78 98 3 31 0 38 -14 38 -24 0 -58 47 -59 84 -1 25 -3 26
-6 8 -6 -32 14 -78 43 -97 15 -10 24 -25 24 -41 0 -39 31 -83 68 -96 31 -11
31 -13 11 -20 -28 -11 -79 19 -97 56 -10 20 -11 35 -3 57 9 27 8 31 -13 39
-50 18 -73 91 -41 124 60 60 -81 91 -183 40z m156 9 c18 -4 22 -10 17 -27 -18
-61 -17 -101 5 -128 12 -16 28 -28 37 -28 12 0 14 -7 9 -35 -12 -62 41 -125
106 -125 16 0 28 -10 38 -32 9 -17 30 -39 48 -48 l33 -18 -38 -32 c-21 -18
-28 -27 -16 -21 12 6 29 18 38 27 9 9 30 20 48 24 18 4 40 11 50 15 15 6 17 1
17 -48 0 -45 -8 -71 -45 -145 -50 -101 -86 -137 -151 -154 -24 -7 -44 -16 -44
-20 0 -13 -74 -28 -141 -28 -92 0 -184 30 -258 85 -82 60 -98 87 -126 210 -6
28 -5 29 12 14 23 -20 43 -32 43 -25 0 3 -18 25 -40 50 -48 57 -57 95 -35 161
27 80 101 195 126 195 5 0 8 -27 6 -60 -1 -39 1 -56 8 -49 6 5 11 33 11 62 1
29 2 60 3 69 1 22 54 74 100 98 36 19 96 25 139 13z m236 -345 c6 -26 63 -68
90 -68 9 0 15 -4 11 -9 -12 -20 -89 14 -112 48 -21 31 -23 51 -3 51 4 0 10
-10 14 -22z"/>
<path d="M1653 2031 c-17 -11 -34 -29 -38 -40 -3 -12 -12 -21 -18 -21 -7 0 8
-14 33 -30 25 -16 56 -29 70 -29 16 1 19 3 8 6 -15 4 -15 8 -2 38 18 45 18 81
-2 89 -20 8 -14 9 -51 -13z"/>
<path d="M1728 1839 c-2 -6 -22 -15 -43 -19 l-40 -8 36 -1 c34 -1 70 21 56 35
-2 3 -7 0 -9 -7z"/>
<path d="M1476 1805 c-6 -17 9 -29 24 -20 14 9 12 22 -4 28 -8 3 -17 -1 -20
-8z"/>
<path d="M1750 1701 c-16 -39 -10 -65 17 -69 24 -4 63 29 63 52 0 20 -28 46
-50 46 -10 0 -23 -12 -30 -29z"/>
<path d="M1610 1680 c-8 -5 -40 -10 -71 -10 -40 0 -60 -5 -70 -17 -13 -15 -12
-15 8 -4 21 11 22 10 20 -26 -2 -34 1 -38 25 -41 34 -4 68 14 68 34 0 11 5 14
18 9 9 -4 37 -9 62 -11 l45 -3 -40 8 c-22 4 -51 13 -64 20 l-23 13 28 19 c16
10 25 19 19 19 -5 0 -17 -5 -25 -10z"/>
<path d="M1765 1520 c-16 -7 -17 -9 -3 -9 9 -1 20 4 23 9 7 11 7 11 -20 0z"/>
<path d="M1923 1512 c-19 -12 -45 -81 -38 -103 5 -14 2 -19 -14 -19 -11 0 -26
-6 -33 -13 -7 -7 -24 -21 -38 -31 -31 -22 -19 -19 51 15 145 71 202 101 181
96 -18 -4 -25 0 -32 18 -13 35 -51 53 -77 37z"/>
<path d="M1450 1499 c0 -3 5 -20 11 -37 8 -23 20 -33 54 -45 25 -8 42 -10 39
-6 -3 5 -19 12 -37 17 -22 6 -37 19 -49 43 -9 19 -17 31 -18 28z"/>
<path d="M1667 1412 c-26 -29 -22 -62 7 -62 43 0 70 42 44 68 -17 17 -32 15
-51 -6z"/>
<path d="M459 2086 c-102 -36 -198 -133 -228 -230 -58 -186 -22 -376 84 -445
22 -14 56 -41 75 -58 54 -50 130 -75 217 -71 54 2 77 8 93 23 20 18 37 20 219
21 189 1 199 2 281 30 108 37 110 39 110 78 0 37 -15 54 -77 85 -23 11 -44 30
-48 41 -9 29 -55 61 -85 59 -14 -1 -37 3 -52 9 -16 6 -71 14 -125 18 -53 3
-107 10 -120 15 -37 14 -64 11 -86 -8 -19 -18 -19 -17 -14 57 5 57 4 65 -3 35
-12 -54 -12 -125 0 -177 18 -84 29 -192 20 -208 -7 -11 -9 -7 -10 18 0 18 -11
64 -25 103 -39 112 -51 214 -37 318 7 48 12 119 12 157 0 38 5 76 10 84 7 10
10 -18 11 -90 1 -58 5 -118 9 -135 7 -32 2 204 -6 243 -2 12 -16 27 -30 32
-36 14 -152 12 -195 -4z m201 -12 c7 -7 6 -22 -6 -49 -10 -26 -14 -53 -10 -80
3 -22 0 -86 -6 -142 -13 -116 -1 -228 33 -318 11 -27 22 -75 25 -106 l6 -56
-33 -14 c-72 -30 -218 -3 -261 48 -11 14 -10 15 12 10 14 -4 -1 6 -32 21 -122
58 -162 130 -162 292 -1 174 38 264 133 313 30 15 48 27 40 27 -19 1 14 26 66
51 31 15 57 19 112 17 40 -2 77 -8 83 -14z m217 -441 c-3 -5 32 -8 76 -8 79 0
84 -2 140 -39 31 -21 57 -41 57 -43 0 -3 -10 -13 -22 -24 l-23 -19 30 16 c30
16 33 16 90 -12 44 -21 63 -37 69 -57 14 -39 -3 -51 -109 -82 -97 -28 -134
-31 -328 -27 -123 2 -128 3 -122 22 4 11 1 44 -5 74 -13 64 -5 104 24 117 18
8 18 9 -5 4 -22 -4 -28 -1 -33 19 -3 13 -9 31 -12 39 -4 11 2 17 23 20 50 7
154 7 150 0z"/>
<path d="M558 2053 c7 -3 16 -2 19 1 4 3 -2 6 -13 5 -11 0 -14 -3 -6 -6z"/>
<path d="M500 1970 c-13 -8 -13 -11 2 -26 20 -20 51 -11 46 13 -4 21 -27 27
-48 13z"/>
<path d="M285 1899 c-4 -6 -5 -12 -2 -15 2 -3 7 2 10 11 7 17 1 20 -8 4z"/>
<path d="M435 1844 c-17 -18 -18 -24 -6 -42 14 -23 46 -10 49 19 4 32 -21 45
-43 23z"/>
<path d="M590 1823 c-8 -7 -43 -38 -77 -68 -35 -30 -58 -55 -52 -55 5 0 21 11
35 25 14 14 29 25 34 25 5 0 11 9 15 19 3 11 14 23 25 26 19 6 46 33 39 39 -2
1 -11 -3 -19 -11z"/>
<path d="M293 1805 c-17 -12 -19 -21 -14 -47 5 -26 12 -34 33 -36 31 -4 53 26
45 64 -2 13 1 25 7 28 6 2 -3 5 -19 5 -17 1 -40 -6 -52 -14z"/>
<path d="M380 1625 c0 -4 26 -33 58 -65 38 -39 71 -62 100 -70 23 -7 42 -17
42 -22 0 -4 15 -8 33 -7 32 0 32 0 -13 18 -41 17 -45 21 -42 49 5 48 -57 81
-91 48 -12 -13 -19 -10 -51 21 -20 19 -36 32 -36 28z"/>
<path d="M250 1577 c0 -26 24 -80 45 -97 18 -15 18 -14 1 13 -10 15 -24 44
-32 65 -7 20 -13 29 -14 19z"/>
<path d="M324 1526 c-20 -53 34 -93 57 -42 6 13 9 32 6 40 -8 20 -56 21 -63 2z"/>
<path d="M553 1323 c9 -2 25 -2 35 0 9 3 1 5 -18 5 -19 0 -27 -2 -17 -5z"/>
<path d="M969 1570 c-24 -20 -24 -20 -5 -35 43 -33 98 1 66 40 -17 20 -33 19
-61 -5z"/>
<path d="M845 1487 c-18 -15 -24 -28 -20 -40 8 -20 10 -20 95 -2 47 9 56 13
32 14 -18 1 -31 5 -27 10 7 12 -22 41 -40 41 -8 0 -26 -10 -40 -23z"/>
<path d="M1143 1479 c-23 -9 -33 -52 -14 -63 16 -11 41 6 47 31 8 31 -5 43
-33 32z"/>
<path d="M850 1380 c-20 -6 -21 -8 -5 -8 11 0 34 4 50 8 27 7 27 8 5 8 -14 0
-36 -4 -50 -8z"/>
<path d="M798 1363 c7 -3 16 -2 19 1 4 3 -2 6 -13 5 -11 0 -14 -3 -6 -6z"/>
<path d="M617 1190 c8 -6 88 -22 183 -36 60 -8 136 -47 183 -92 186 -180 137
-539 -83 -607 -23 -7 -24 -7 -10 10 13 17 13 18 0 10 -8 -4 -30 -19 -49 -33
-52 -38 -98 -51 -186 -52 -140 0 -240 37 -336 127 -82 77 -96 136 -57 240 12
32 22 79 23 104 4 111 158 278 295 320 l25 7 -24 1 c-39 2 -111 -40 -180 -104
-75 -70 -131 -173 -131 -241 0 -23 -9 -61 -20 -85 -41 -90 -19 -181 59 -252
102 -92 195 -127 335 -127 84 0 104 4 198 39 58 21 121 49 141 62 47 31 83 88
109 172 44 147 6 310 -99 415 -75 75 -122 91 -361 126 -13 2 -20 0 -15 -4z"/>
<path d="M499 1120 c-19 -10 -42 -27 -50 -37 -13 -17 -13 -17 6 -2 11 9 38 26
60 37 22 12 36 21 30 21 -5 0 -26 -8 -46 -19z"/>
<path d="M570 1080 c-6 -11 -8 -30 -5 -40 6 -18 2 -19 -27 -15 -29 5 -30 4
-10 -5 37 -16 104 -14 147 4 30 13 33 16 13 13 -24 -4 -27 0 -30 27 -3 28 -7
31 -40 34 -29 2 -39 -1 -48 -18z"/>
<path d="M910 1076 c0 -2 8 -10 18 -17 15 -13 16 -12 3 4 -13 16 -21 21 -21
13z"/>
<path d="M840 1030 c-6 -12 -10 -40 -8 -63 3 -41 4 -42 40 -45 48 -4 65 22 48
74 -17 52 -61 70 -80 34z"/>
<path d="M941 1019 c-1 -8 6 -24 15 -35 15 -19 15 -19 6 1 -5 11 -12 27 -15
35 -5 13 -6 13 -6 -1z"/>
<path d="M1745 948 c-22 -17 -31 -27 -20 -23 111 44 278 20 398 -57 39 -25 46
-33 33 -40 -19 -11 -21 -39 -3 -57 10 -10 7 -16 -13 -32 -21 -17 -22 -19 -3
-10 12 6 37 11 57 11 19 0 42 7 51 17 14 14 18 14 26 2 13 -21 11 -45 -6 -59
-9 -7 -59 -17 -113 -21 -53 -5 -162 -16 -241 -25 -106 -12 -182 -15 -285 -10
-126 6 -376 22 -384 25 -2 1 -2 13 0 28 4 36 138 152 224 194 58 29 70 31 131
26 38 -2 76 -8 86 -12 9 -4 17 -3 17 3 0 27 -169 29 -228 2 -26 -12 -54 -17
-70 -14 -24 5 -35 -2 -75 -45 -26 -27 -47 -56 -47 -64 0 -7 -13 -26 -30 -42
-31 -30 -39 -66 -17 -82 6 -6 62 -13 122 -17 61 -4 130 -11 155 -16 67 -14
199 -12 350 5 74 9 189 19 255 24 66 5 132 14 147 20 31 12 43 42 28 70 -18
35 -75 91 -95 95 -11 2 -47 20 -80 40 -33 20 -92 43 -130 52 -39 9 -82 22 -97
30 -45 24 -98 17 -143 -18z"/>
<path d="M367 953 c-12 -12 -7 -43 7 -43 18 0 39 27 31 40 -7 11 -28 13 -38 3z"/>
<path d="M424 876 c-11 -47 -2 -61 41 -61 33 0 42 5 55 28 14 26 14 29 -4 43
-11 8 -35 14 -53 14 -26 0 -34 -5 -39 -24z"/>
<path d="M1880 871 c-14 -4 -27 -16 -29 -26 -2 -11 -7 -23 -12 -26 -15 -9 67
-32 93 -26 31 8 47 36 37 65 -9 23 -37 27 -89 13z"/>
<path d="M888 834 c2 -13 8 -21 13 -18 14 8 11 31 -4 37 -10 4 -13 -2 -9 -19z"/>
<path d="M1439 833 c-13 -16 -12 -17 4 -4 16 13 21 21 13 21 -2 0 -10 -8 -17
-17z"/>
<path d="M712 828 c-7 -7 -12 -17 -12 -24 0 -6 -9 -18 -20 -25 -16 -11 -47
-79 -36 -79 1 0 26 7 56 16 32 10 67 13 88 9 33 -6 34 -5 18 10 -9 9 -24 14
-32 11 -13 -5 -14 -1 -9 23 11 51 -23 89 -53 59z"/>
<path d="M1359 803 c-12 -16 -12 -17 1 -7 8 6 22 14 30 17 13 5 12 6 -1 6 -9
1 -23 -7 -30 -16z"/>
<path d="M1495 782 c-16 -11 -36 -26 -43 -34 -11 -13 -5 -17 38 -25 41 -8 56
-7 82 6 43 22 45 36 7 55 -40 20 -47 20 -84 -2z"/>
<path d="M818 753 c7 -3 16 -2 19 1 4 3 -2 6 -13 5 -11 0 -14 -3 -6 -6z"/>
<path d="M1018 702 c-17 -31 -34 -107 -18 -82 5 8 10 24 10 35 0 11 7 31 16
43 9 13 14 25 12 27 -2 3 -11 -8 -20 -23z"/>
<path d="M1865 680 c3 -5 8 -10 11 -10 2 0 4 5 4 10 0 6 -5 10 -11 10 -5 0 -7
-4 -4 -10z"/>
<path d="M343 640 c2 -30 8 -39 49 -63 26 -15 52 -36 58 -47 6 -11 20 -25 33
-31 33 -17 -40 58 -84 86 -22 14 -40 36 -46 57 l-11 33 1 -35z"/>
<path d="M864 649 c-10 -17 13 -36 27 -22 12 12 4 33 -11 33 -5 0 -12 -5 -16
-11z"/>
<path d="M463 613 c-15 -6 -17 -39 -3 -48 20 -12 51 6 48 28 -3 22 -22 30 -45
20z"/>
<path d="M719 596 c-16 -34 -4 -76 21 -76 10 0 31 16 46 35 22 29 24 38 14 50
-20 24 -69 19 -81 -9z"/>
<path d="M664 451 c4 -6 -5 -13 -21 -17 -53 -11 -48 -14 15 -9 34 4 77 12 95
20 40 18 26 19 -20 3 -27 -10 -38 -10 -54 1 -12 7 -18 8 -15 2z"/>
</g>
</svg>
