<?xml version="1.0" standalone="no"?>
<!DOCTYPE svg PUBLIC "-//W3C//DTD SVG 20010904//EN"
 "http://www.w3.org/TR/2001/REC-SVG-20010904/DTD/svg10.dtd">
<svg version="1.0" xmlns="http://www.w3.org/2000/svg"
 width="236.000000pt" height="236.000000pt" viewBox="0 0 236.000000 236.000000"
 preserveAspectRatio="xMidYMid meet">

<g transform="translate(0.000000,236.000000) scale(0.100000,-0.100000)"
fill="#000000" stroke="none">
<path d="M1199 1961 c30 -55 6 -89 -113 -155 -76 -43 -116 -89 -123 -146 -4
-28 -11 -40 -22 -40 -27 -1 -104 -40 -134 -68 -48 -45 -61 -80 -60 -159 1 -69
0 -72 -27 -83 -35 -15 -96 -77 -109 -113 -6 -16 -11 -48 -11 -71 l0 -43 51 -5
c30 -3 62 -14 81 -28 l30 -22 22 21 c47 44 131 47 177 5 17 -15 20 -15 45 5
36 28 121 29 155 2 24 -19 25 -19 48 0 31 25 106 25 146 1 29 -18 31 -18 60 0
53 32 146 19 176 -25 4 -6 21 0 39 13 19 13 53 25 80 28 43 4 49 7 53 31 7 35
-6 94 -29 129 -19 29 -41 48 -88 73 -27 15 -29 21 -30 71 -1 44 -7 62 -29 91
-28 37 -92 77 -123 77 -11 0 -14 5 -10 17 4 9 11 36 16 60 26 116 -63 244
-228 327 -48 24 -52 25 -43 7z m74 -74 c23 -48 13 -70 -53 -116 -32 -23 -61
-50 -65 -60 -18 -57 -97 -81 -103 -30 -4 35 27 70 95 107 102 56 118 77 98
126 -14 33 11 9 28 -27z m-330 -325 c-43 -37 -65 -85 -61 -134 2 -33 -2 -44
-19 -55 -49 -32 -83 59 -48 127 23 45 80 78 155 89 3 0 -9 -12 -27 -27z"/>
<path d="M566 1012 c-4 -6 5 -34 18 -61 14 -27 66 -145 116 -262 105 -244 114
-263 141 -290 18 -18 35 -19 342 -19 372 0 342 -8 393 105 62 140 224 519 224
527 0 17 -95 8 -127 -12 -41 -25 -56 -55 -139 -289 -37 -107 -70 -189 -72
-183 -2 6 18 91 44 189 59 224 63 254 35 282 -26 26 -75 27 -100 2 -27 -27
-36 -64 -76 -310 -19 -118 -37 -217 -40 -219 -7 -7 -7 1 10 203 21 252 20 300
-6 326 -28 28 -76 22 -102 -13 -18 -24 -23 -57 -36 -265 -18 -262 -25 -251
-29 42 -2 93 -5 181 -9 195 -15 64 -84 83 -123 33 -22 -28 -22 -31 -15 -273 4
-135 4 -242 1 -239 -4 4 -18 105 -32 225 -13 121 -29 234 -35 251 -20 62 -87
83 -127 40 -29 -31 -28 -54 8 -167 32 -101 83 -328 70 -313 -4 4 -40 102 -80
216 -89 251 -107 278 -192 285 -34 2 -58 0 -62 -6z"/>
</g>
</svg>
