<?xml version="1.0" standalone="no"?>
<!DOCTYPE svg PUBLIC "-//W3C//DTD SVG 20010904//EN"
 "http://www.w3.org/TR/2001/REC-SVG-20010904/DTD/svg10.dtd">
<svg version="1.0" xmlns="http://www.w3.org/2000/svg"
 width="564.000000pt" height="423.000000pt" viewBox="0 0 564.000000 423.000000"
 preserveAspectRatio="xMidYMid meet">

<g transform="translate(0.000000,423.000000) scale(0.100000,-0.100000)"
fill="#000000" stroke="none">
<path d="M2727 3089 c-51 -30 -34 -116 34 -170 33 -26 39 -36 39 -70 l0 -39
-110 0 c-104 0 -112 -1 -135 -25 -24 -24 -25 -28 -25 -180 l0 -155 -106 0
c-106 0 -106 0 -135 -31 l-29 -31 0 -183 0 -183 -62 -4 c-51 -4 -65 -9 -85
-32 -23 -27 -23 -29 -23 -282 l0 -254 -65 0 c-51 0 -65 -3 -65 -15 0 -13 53
-15 420 -15 l420 0 0 -130 0 -130 -172 -2 c-126 -2 -172 -6 -176 -15 -3 -10
75 -13 368 -13 293 0 371 3 368 13 -4 9 -50 13 -176 15 l-172 2 0 130 0 130
420 0 c367 0 420 2 420 15 0 12 -14 15 -65 15 l-65 0 0 251 c0 152 -4 258 -10
270 -16 28 -63 49 -115 49 l-45 0 0 184 c0 181 -1 185 -24 213 -23 27 -28 28
-135 31 l-111 4 0 154 c0 151 -1 156 -25 179 -23 24 -31 25 -135 25 l-110 0 0
39 c0 30 5 42 24 55 70 45 100 133 61 176 -20 22 -64 26 -95 10 -13 -7 -21 -7
-25 0 -8 13 -55 12 -78 -1z m71 -35 c21 -15 25 -15 41 0 33 30 71 13 71 -32 0
-26 -68 -102 -90 -102 -7 0 -30 17 -51 39 -40 40 -50 76 -27 99 16 16 29 15
56 -4z m262 -294 c15 -15 20 -33 20 -69 0 -28 -4 -52 -8 -55 -5 -3 -31 10 -59
30 -82 57 -132 55 -222 -11 -43 -32 -79 -32 -122 0 -19 14 -51 33 -71 42 -42
18 -46 28 -22 61 15 22 19 22 240 22 211 0 225 -1 244 -20z m-426 -125 c40
-28 59 -35 96 -35 38 0 56 7 93 35 35 27 55 35 87 35 32 0 52 -8 87 -35 25
-19 54 -35 65 -35 17 0 19 -7 16 -72 l-3 -73 -257 -3 -258 -2 0 110 c0 81 3
110 13 110 6 0 34 -16 61 -35z m697 -244 c14 -17 19 -40 19 -88 0 -64 0 -65
-25 -59 -13 3 -41 17 -61 31 -79 54 -150 55 -231 2 -30 -19 -66 -32 -96 -35
-41 -4 -55 0 -105 31 -96 59 -152 58 -251 -4 -61 -39 -104 -38 -189 6 -37 19
-75 37 -84 39 -33 10 -16 80 22 94 11 4 236 7 501 7 l481 -1 19 -23z m-957
-143 c45 -29 59 -33 121 -33 62 0 75 4 119 33 69 44 118 44 202 -3 87 -49 148
-49 224 0 71 45 136 48 193 9 21 -14 55 -31 75 -38 l37 -13 3 -91 3 -92 -531
0 -530 0 0 130 c0 150 1 151 84 98z m1123 -281 c14 -14 19 -38 21 -122 4 -124
0 -127 -88 -70 -30 20 -65 38 -78 42 -39 10 -95 -5 -141 -38 -74 -52 -112 -49
-216 17 -55 35 -114 29 -181 -17 -68 -47 -120 -47 -189 1 -42 30 -58 35 -105
35 -47 0 -62 -5 -109 -37 -68 -48 -100 -49 -171 -3 -30 19 -70 37 -87 41 -33
6 -33 7 -33 63 0 63 17 97 53 104 12 3 311 4 664 3 602 -1 643 -2 660 -19z
m-1273 -225 c32 -22 50 -27 100 -27 54 0 67 4 106 33 62 46 116 45 190 -4 49
-32 61 -35 110 -32 42 3 65 11 99 36 61 45 120 45 181 0 33 -25 55 -33 99 -36
50 -3 61 0 111 32 76 50 122 51 188 5 23 -17 58 -33 77 -36 l35 -6 0 -128 0
-129 -700 0 -700 0 0 163 c0 90 3 166 6 170 9 8 53 -10 98 -41z"/>
</g>
</svg>
