<?xml version="1.0" standalone="no"?>
<!DOCTYPE svg PUBLIC "-//W3C//DTD SVG 20010904//EN"
 "http://www.w3.org/TR/2001/REC-SVG-20010904/DTD/svg10.dtd">
<svg version="1.0" xmlns="http://www.w3.org/2000/svg"
 width="593.000000pt" height="503.000000pt" viewBox="0 0 593.000000 503.000000"
 preserveAspectRatio="xMidYMid meet">

<g transform="translate(0.000000,503.000000) scale(0.100000,-0.100000)"
fill="#000000" stroke="none">
<path d="M2280 5014 c-297 -35 -452 -69 -655 -142 -549 -197 -1023 -608 -1303
-1132 -119 -221 -203 -473 -249 -740 -24 -138 -27 -181 -27 -390 0 -197 4
-257 23 -370 86 -519 311 -960 676 -1326 71 -71 168 -160 215 -196 335 -259
718 -424 1135 -489 199 -31 512 -32 712 -1 311 48 625 159 866 304 l67 41 -21
36 c-12 20 -87 160 -167 311 -80 151 -146 276 -147 278 -2 2 -32 -15 -69 -37
-504 -309 -1136 -329 -1667 -55 -250 129 -489 348 -653 599 -108 164 -211 438
-243 644 -20 130 -22 372 -4 496 70 484 339 907 751 1182 560 375 1304 373
1870 -3 404 -268 672 -686 745 -1164 17 -111 20 -365 4 -477 -22 -160 -95
-401 -157 -517 l-26 -48 28 -52 c57 -103 300 -533 336 -593 l37 -63 20 28
c183 249 336 572 413 876 101 397 101 801 0 1196 -106 416 -321 791 -630 1100
-366 367 -834 604 -1343 681 -126 19 -452 33 -537 23z m172 -184 c42 -12 58
-34 58 -80 0 -28 -3 -31 -27 -28 -22 2 -29 9 -31 30 -4 31 -32 44 -62 28 -18
-10 -20 -20 -20 -134 0 -135 7 -154 54 -142 19 5 27 15 32 41 5 30 10 35 35
35 34 0 38 -20 14 -75 -17 -42 -54 -59 -109 -52 -72 10 -81 29 -84 183 -4 166
6 187 98 203 3 1 22 -4 42 -9z m229 -10 c6 0 9 -31 7 -77 l-3 -78 42 -3 c47
-3 47 -3 58 91 5 44 10 57 23 57 39 -1 41 -10 27 -135 -8 -66 -17 -146 -21
-178 -7 -63 -14 -72 -48 -63 -22 5 -22 8 -13 76 5 39 6 77 4 84 -3 8 -24 15
-46 18 -46 4 -45 5 -57 -99 -6 -57 -9 -63 -30 -63 -12 0 -25 4 -28 9 -6 9 30
335 39 360 3 7 12 10 21 7 9 -3 20 -6 25 -6z m-633 -67 c47 -190 72 -314 67
-323 -3 -5 -16 -10 -29 -10 -20 0 -25 9 -41 80 -10 44 -20 80 -22 80 -2 0 -24
-5 -49 -11 -34 -9 -43 -15 -40 -28 15 -51 37 -144 34 -146 -2 -1 -15 -5 -30
-9 -25 -6 -27 -3 -38 47 -6 28 -25 110 -42 180 -17 71 -28 130 -26 132 2 3 15
6 28 7 23 3 26 -3 44 -69 18 -70 20 -72 45 -67 70 16 70 15 46 103 -16 62 -13
71 20 71 20 0 26 -7 33 -37z m960 8 c11 -6 10 -23 -6 -87 -11 -43 -30 -123
-42 -176 -20 -90 -23 -98 -45 -98 -13 0 -26 4 -30 10 -3 5 5 53 18 107 13 54
32 133 41 176 18 78 29 90 64 68z m171 -50 c12 -8 11 -19 -8 -71 -13 -34 -21
-63 -19 -65 1 -2 34 19 72 47 61 45 71 49 93 39 31 -14 25 -23 -61 -82 -74
-50 -73 -45 -52 -181 7 -49 11 -90 9 -92 -3 -2 -18 0 -33 6 -26 8 -29 15 -35
66 -4 31 -10 77 -13 101 l-7 45 -31 -80 c-27 -71 -32 -79 -54 -76 -13 1 -26 4
-28 7 -3 2 17 60 43 127 26 68 54 144 63 171 16 47 31 57 61 38z m-1449 -7 c0
-4 -9 -47 -21 -96 -12 -50 -17 -93 -13 -97 5 -4 44 -38 87 -76 77 -67 78 -69
55 -81 -13 -8 -26 -13 -30 -14 -5 0 -40 29 -79 65 -39 36 -73 64 -75 62 -3 -2
10 -39 27 -81 17 -43 29 -79 28 -81 -2 -2 -15 -6 -29 -10 -25 -6 -27 -2 -74
122 -27 70 -57 147 -67 170 -18 42 -17 43 2 54 31 16 42 7 63 -55 11 -31 22
-56 26 -56 4 0 13 32 20 72 14 71 36 108 65 108 8 0 15 -3 15 -6z m1759 -128
c9 -11 4 -26 -24 -72 -19 -33 -35 -62 -35 -66 0 -7 67 -48 79 -48 4 0 13 11
19 24 6 14 23 43 37 65 23 37 27 40 45 29 11 -7 20 -17 20 -23 0 -8 -162 -298
-175 -313 -3 -3 -44 15 -54 24 -2 1 6 15 17 31 10 15 29 48 42 72 24 47 24 46
-32 76 -31 17 -26 22 -82 -77 -29 -52 -33 -55 -61 -34 -20 14 -19 17 83 191
84 142 94 153 121 121z m-2086 -191 c43 -74 81 -135 84 -135 3 0 23 10 44 22
31 17 41 19 54 8 8 -7 15 -15 15 -19 0 -8 -123 -81 -137 -81 -9 0 -29 31 -146
234 -43 73 -45 80 -29 92 9 8 22 13 27 14 6 0 45 -61 88 -135z m2412 -16 c36
-28 65 -54 65 -59 0 -4 -7 -13 -15 -20 -13 -11 -22 -8 -55 19 -21 17 -42 31
-47 31 -4 0 -20 -16 -35 -34 -28 -34 -35 -56 -20 -56 4 0 21 -13 39 -28 29
-24 31 -29 18 -46 -14 -18 -15 -18 -47 6 -18 13 -38 27 -44 31 -7 4 -27 -12
-48 -38 l-37 -44 45 -33 c48 -35 54 -49 32 -67 -12 -10 -27 -2 -81 40 -36 28
-65 55 -63 60 4 12 219 289 224 289 3 0 34 -23 69 -51z m-2546 -111 c130 -105
138 -114 124 -130 -21 -23 -28 -23 -66 6 l-32 25 -34 -28 -34 -28 18 -36 c14
-30 15 -40 5 -52 -28 -34 -34 -25 -181 298 -12 26 -11 30 11 48 14 10 31 17
38 14 6 -2 75 -55 151 -117z m2811 -167 c0 -44 -62 -104 -101 -99 -24 4 -28 1
-24 -12 5 -14 -84 -140 -104 -148 -4 -1 -16 6 -25 17 -18 20 -17 21 12 59 17
21 38 45 47 52 21 17 19 40 -7 67 l-22 23 -58 -57 c-57 -56 -58 -57 -78 -38
-21 19 -21 19 112 152 l133 134 58 -60 c44 -46 57 -66 57 -90z m-3160 65 l-31
-31 118 -112 118 -112 -22 -22 -22 -22 -116 114 -117 114 -23 -28 c-27 -31
-37 -33 -55 -12 -10 12 0 28 66 95 74 76 78 79 96 63 18 -16 18 -18 -12 -47z
m3279 -158 c12 -20 11 -24 -14 -45 -17 -15 -37 -23 -53 -21 -28 3 -43 28 -18
28 9 0 20 8 23 18 6 16 32 41 43 42 3 0 11 -10 19 -22z m-3496 -38 c3 -11 11
-18 19 -15 7 2 21 -2 31 -9 15 -12 16 -18 7 -35 -14 -28 -29 -26 -63 4 -28 27
-31 34 -21 59 8 22 21 20 27 -4z m3533 -66 c-18 -16 -38 -24 -54 -22 -32 4
-40 24 -12 31 11 3 19 10 18 15 -2 6 6 17 17 26 18 13 22 13 40 -5 l20 -20
-29 -25z m-3579 0 c3 -8 12 -13 19 -10 7 3 22 -3 33 -12 20 -17 20 -18 2 -41
l-18 -24 -37 34 c-27 24 -35 39 -31 52 9 21 24 22 32 1z m3497 -360 c-14 -14
-24 -32 -22 -42 7 -35 52 -24 183 44 122 64 129 66 142 48 7 -10 12 -23 10
-29 -7 -19 -266 -145 -300 -145 -37 0 -69 27 -87 74 -14 37 -6 59 33 92 l31
26 18 -22 c18 -22 18 -23 -8 -46z m350 -124 c60 -22 87 -129 44 -169 -29 -28
-59 -36 -69 -20 -15 24 -10 46 11 52 28 7 35 33 16 62 -32 49 -80 16 -92 -62
-3 -26 -13 -60 -20 -74 -14 -29 -69 -59 -106 -59 -80 0 -134 140 -72 189 40
31 65 36 81 15 19 -26 17 -32 -22 -48 -41 -18 -47 -52 -15 -81 16 -15 26 -17
47 -9 29 10 46 46 58 118 7 41 43 82 78 89 12 2 25 5 29 6 4 0 18 -3 32 -9z
m-4049 -301 c50 -12 93 -25 97 -28 4 -3 2 -28 -4 -54 -9 -35 -16 -47 -27 -45
-12 2 -15 13 -13 41 3 28 0 37 -11 37 -9 0 -22 2 -30 6 -10 3 -16 -4 -20 -25
-4 -20 -13 -31 -23 -31 -13 0 -15 7 -10 34 6 33 6 34 -31 41 -21 3 -45 10 -52
14 -20 13 -6 44 16 37 10 -3 59 -15 108 -27z m4146 -9 c27 -15 49 -63 49 -109
0 -31 -6 -44 -26 -60 -32 -25 -69 -27 -78 -5 -10 26 -7 32 24 43 22 7 30 16
30 34 0 48 -21 53 -138 33 -124 -21 -142 -28 -142 -60 0 -31 24 -50 56 -43 20
3 27 -1 35 -20 13 -35 4 -43 -45 -43 -98 0 -138 132 -56 188 18 12 45 22 59
23 14 0 51 7 81 14 71 16 126 18 151 5z m-4160 -120 c29 -6 60 -17 68 -25 21
-21 18 -73 -6 -97 -19 -18 -28 -20 -103 -13 -92 8 -120 25 -120 73 0 68 42 84
161 62z m46 -196 c20 -20 24 -31 19 -56 -10 -52 -21 -58 -111 -58 -68 0 -87 4
-109 21 -30 24 -34 63 -10 97 14 20 24 22 100 22 78 0 87 -2 111 -26z m13
-192 c0 -27 -7 -57 -16 -70 -14 -20 -24 -22 -104 -22 -80 0 -90 2 -104 22 -9
12 -16 41 -16 65 0 50 0 50 143 52 l97 1 0 -48z m14 -271 c38 -41 15 -111 -36
-111 -26 0 -23 36 3 43 30 8 21 42 -11 42 -21 0 -27 -8 -39 -44 -11 -34 -21
-46 -49 -58 -32 -13 -37 -13 -61 5 -51 38 -34 122 25 122 32 0 32 -28 -1 -40
-27 -10 -30 -17 -16 -38 15 -24 54 -10 64 23 22 68 84 97 121 56z m44 -198 c3
-19 -10 -29 -85 -66 -120 -60 -133 -64 -133 -37 0 14 8 24 21 27 15 4 19 12
17 32 -2 20 -10 27 -33 31 -18 3 -31 12 -33 23 -3 16 6 17 120 15 118 -3 123
-4 126 -25z m42 -130 c11 -34 12 -45 2 -55 -10 -10 -15 -5 -24 20 -13 34 -27
39 -58 22 -16 -9 -18 -15 -10 -36 6 -14 8 -30 4 -35 -10 -17 -25 -9 -35 21 -6
17 -12 30 -14 30 -1 0 -22 -7 -45 -15 -23 -8 -46 -12 -51 -9 -21 12 -6 32 34
44 23 8 67 24 97 37 30 12 62 21 70 20 8 -1 22 -21 30 -44z m48 -122 c11 -27
18 -52 14 -55 -13 -14 -28 -4 -39 25 -12 30 -12 30 -43 14 -26 -14 -29 -18
-19 -36 11 -22 6 -49 -10 -49 -5 0 -14 14 -20 30 -11 34 -11 34 -46 18 -19 -8
-25 -17 -21 -30 3 -10 9 -27 12 -38 5 -15 2 -20 -12 -20 -14 0 -24 14 -36 47
-10 26 -14 51 -10 54 4 4 42 21 86 38 43 17 86 36 95 41 25 15 27 13 49 -39z
m60 -130 c37 -69 37 -67 17 -75 -10 -4 -19 3 -27 19 l-11 24 -89 -45 c-49 -25
-93 -42 -98 -39 -24 15 -4 34 79 75 77 37 88 46 80 61 -13 24 -11 39 4 39 6 0
27 -27 45 -59z m49 -97 c3 -9 -5 -27 -22 -44 -16 -17 -26 -32 -24 -34 3 -3 22
-1 44 4 28 6 42 5 47 -3 14 -22 9 -25 -63 -37 -39 -7 -89 -23 -112 -35 -22
-13 -44 -22 -49 -19 -18 12 -6 34 30 54 21 12 58 46 82 76 45 57 57 64 67 38z
m157 -236 c8 -14 2 -29 -32 -79 -24 -34 -41 -63 -39 -65 1 -2 29 13 61 32 63
37 82 40 100 11 9 -15 4 -24 -34 -58 -117 -103 -130 -113 -143 -100 -9 10 0
23 43 62 30 27 52 49 48 49 -3 0 -34 -16 -68 -35 -88 -50 -106 -29 -47 54 54
76 54 78 -8 24 -47 -41 -62 -49 -73 -40 -12 9 1 26 69 89 46 43 90 77 98 75 8
-1 19 -10 25 -19z m168 -184 c17 -16 17 -18 -1 -48 -10 -17 -37 -64 -61 -105
-37 -65 -44 -71 -57 -58 -12 12 -13 19 -3 37 9 18 8 25 -6 41 -16 18 -19 18
-42 3 -17 -11 -27 -13 -35 -5 -7 7 -8 14 -1 21 11 11 177 128 183 129 3 1 13
-6 23 -15z m101 -91 c14 -17 13 -24 -19 -92 -19 -41 -33 -75 -31 -77 1 -2 24
24 51 57 50 61 63 69 72 44 4 -9 -22 -46 -67 -97 -40 -46 -76 -84 -79 -86 -4
-1 -14 6 -23 16 -17 18 -16 22 4 68 42 98 41 101 -14 40 -44 -49 -55 -56 -64
-44 -10 11 2 31 63 101 41 48 79 87 83 87 4 0 15 -8 24 -17z m160 -127 c16
-12 14 -20 -29 -124 -35 -83 -50 -109 -61 -105 -11 4 -13 15 -9 37 5 25 2 34
-15 44 -18 11 -24 11 -40 -4 -16 -14 -22 -15 -32 -5 -10 10 5 29 73 92 47 43
87 78 90 78 3 0 13 -6 23 -13z m135 -82 c33 -23 45 -50 32 -74 -14 -26 -38
-15 -42 18 -2 19 -10 28 -24 30 -17 2 -28 -10 -57 -66 -28 -52 -34 -71 -25
-80 19 -19 44 -14 55 11 9 19 8 26 -6 34 -12 8 -13 14 -5 23 9 9 19 8 43 -4
l31 -17 -25 -49 c-13 -27 -29 -51 -34 -55 -16 -10 -78 22 -96 48 -15 24 -15
28 16 89 52 105 86 128 137 92z m139 -76 c50 -28 48 -27 36 -39 -8 -8 -19 -6
-40 4 -28 15 -29 14 -46 -14 l-17 -30 30 -11 c28 -9 38 -27 24 -41 -4 -3 -19
0 -35 8 -27 15 -29 14 -44 -14 -19 -39 -20 -37 15 -51 32 -13 38 -27 16 -36
-16 -6 -96 32 -96 45 0 4 16 39 36 77 20 38 42 81 50 97 17 33 22 33 71 5z
m1779 -86 c25 -56 42 -107 39 -112 -15 -24 -34 -6 -54 51 -13 33 -25 59 -27
56 -3 -3 0 -32 6 -66 18 -102 -7 -109 -71 -21 -23 32 -44 58 -46 56 -2 -2 10
-32 26 -66 30 -63 31 -80 7 -80 -16 0 -101 193 -93 213 3 8 14 17 25 19 16 5
30 -8 66 -60 50 -72 52 -71 34 26 -11 60 -10 65 7 78 11 8 23 13 28 11 4 -1
28 -49 53 -105z m-1671 -11 c-3 -26 -8 -62 -11 -81 -6 -33 -3 -31 40 32 36 53
49 65 66 61 11 -3 23 -10 26 -15 3 -5 -12 -56 -33 -113 -28 -78 -42 -105 -55
-105 -23 0 -23 7 7 85 13 36 23 65 21 65 -2 0 -21 -27 -42 -60 -29 -45 -44
-60 -59 -58 -13 2 -19 10 -18 23 1 11 5 47 8 80 l5 60 -22 -62 c-26 -70 -32
-78 -52 -70 -12 5 -9 21 19 95 49 132 50 134 81 120 24 -11 25 -16 19 -57z
m1435 15 c0 -8 -13 -19 -30 -25 -32 -11 -33 -13 -24 -49 6 -22 13 -23 60 -5 6
2 14 -3 18 -12 4 -12 -3 -19 -24 -27 -33 -11 -35 -16 -18 -53 9 -19 16 -24 32
-19 59 19 74 -11 16 -32 -63 -23 -66 -21 -99 70 -44 122 -44 136 -1 152 47 17
70 17 70 0z m-1182 -46 c1 0 2 -7 2 -16 0 -13 -7 -15 -40 -9 -32 5 -40 4 -40
-8 0 -9 -3 -22 -6 -31 -5 -12 2 -18 25 -22 28 -6 40 -22 25 -36 -3 -4 -19 -2
-35 2 -27 8 -29 6 -37 -23 -9 -33 -7 -36 41 -51 9 -3 17 -13 17 -22 0 -13 -6
-15 -27 -11 -50 10 -83 26 -83 41 0 11 41 164 55 203 3 10 15 9 52 -2 26 -8
49 -15 51 -15z m1062 5 c0 -8 -11 -17 -24 -21 l-23 -6 24 -94 c24 -95 23 -114
-1 -114 -8 0 -22 35 -37 95 -22 92 -24 95 -51 95 -45 0 -35 27 15 40 23 6 47
13 52 15 24 8 45 4 45 -10z m-986 -44 c3 -9 8 -47 12 -86 7 -63 8 -66 15 -35
4 19 10 56 14 83 5 39 10 47 27 47 17 0 19 -5 14 -32 -3 -18 -11 -72 -17 -120
-12 -91 -19 -100 -59 -78 -14 7 -20 27 -25 81 -8 81 -20 76 -30 -13 -6 -48
-10 -58 -26 -58 -10 0 -19 6 -19 13 0 16 30 197 35 213 5 17 54 5 59 -15z
m812 11 c6 -4 16 -17 23 -30 10 -19 9 -23 -5 -29 -10 -4 -22 0 -30 11 -15 22
-48 17 -52 -7 -3 -13 9 -23 47 -39 61 -26 83 -65 60 -106 -27 -49 -112 -48
-125 2 -11 46 20 64 36 21 10 -28 31 -32 49 -11 18 22 3 43 -45 61 -50 19 -70
49 -60 90 9 35 71 58 102 37z m-573 -28 c29 -9 20 -34 -11 -34 -29 0 -29 0
-40 -92 -12 -95 -23 -121 -43 -101 -9 9 -9 31 0 88 15 106 15 112 -14 119 -14
4 -25 14 -25 22 0 14 9 15 58 10 31 -4 65 -9 75 -12z m447 2 c0 -8 -5 -27 -12
-43 -6 -15 -14 -64 -17 -108 -5 -62 -9 -80 -21 -80 -11 0 -17 15 -21 50 -3 28
-19 78 -37 112 -18 34 -32 65 -32 68 0 3 9 5 20 5 15 0 26 -12 39 -40 16 -37
31 -44 31 -14 0 7 4 24 10 38 10 28 40 36 40 12z m-162 -24 c6 -9 12 -24 12
-34 0 -26 -36 -23 -43 3 -7 27 -41 21 -45 -8 -2 -16 7 -27 40 -45 39 -21 43
-27 46 -64 4 -51 -16 -74 -63 -74 -42 0 -65 22 -65 61 0 23 4 30 17 27 9 -2
20 -14 23 -28 8 -35 44 -34 48 2 3 22 -4 30 -38 49 -43 24 -56 52 -46 93 10
42 85 54 114 18z"/>
<path d="M1166 4228 l38 -77 27 20 28 20 -42 36 c-23 21 -53 46 -66 58 -20 17
-18 11 15 -57z"/>
<path d="M3932 4127 c-18 -18 -32 -38 -32 -44 0 -13 44 -43 63 -43 16 0 57 41
57 57 0 13 -39 63 -49 63 -4 0 -21 -15 -39 -33z"/>
<path d="M324 2936 c-13 -33 3 -43 75 -50 78 -8 91 -4 91 24 0 22 -12 26 -97
35 -52 6 -64 4 -69 -9z"/>
<path d="M300 2746 c0 -30 16 -36 101 -36 66 0 69 1 69 24 0 30 -16 36 -101
36 -66 0 -69 -1 -69 -24z"/>
<path d="M323 2593 c-16 -3 -23 -11 -23 -29 0 -23 2 -24 74 -24 77 0 104 13
92 45 -4 11 -20 15 -63 14 -32 -1 -68 -4 -80 -6z"/>
<path d="M410 2095 c0 -19 9 -19 51 0 l34 14 -42 1 c-32 0 -43 -4 -43 -15z"/>
<path d="M1003 1158 c-18 -13 -31 -27 -29 -33 6 -20 27 -10 47 23 25 38 23 39
-18 10z"/>
<path d="M1267 924 c-26 -22 -29 -44 -7 -44 10 0 44 59 38 65 -2 2 -16 -8 -31
-21z"/>
<path d="M1618 3853 c-27 -4 -28 -6 -28 -74 l0 -69 45 0 45 0 0 -170 0 -170
-45 0 -45 0 0 -70 0 -70 200 0 200 0 0 69 0 70 -47 3 -48 3 0 165 0 165 48 3
47 3 0 70 0 69 -159 0 c-88 0 -165 2 -173 3 -7 2 -25 2 -40 0z"/>
<path d="M2160 3843 c-65 -22 -96 -47 -114 -93 -21 -52 -20 -109 1 -161 22
-57 78 -90 237 -140 72 -22 137 -46 144 -51 20 -17 -3 -35 -54 -43 -64 -9
-148 17 -192 61 -31 31 -39 34 -93 34 l-59 0 0 -110 0 -110 65 0 c59 0 65 2
65 21 0 16 4 19 18 14 104 -44 121 -48 202 -49 77 0 91 3 140 30 73 41 103 94
98 176 -3 42 -11 65 -32 93 -47 61 -64 69 -292 135 -76 21 -94 39 -67 66 33
32 182 -4 227 -55 16 -17 30 -21 83 -21 l63 0 0 103 0 102 -65 -3 c-50 -3 -65
-7 -65 -19 0 -11 -5 -13 -17 -8 -109 47 -210 57 -293 28z"/>
<path d="M2843 3838 c-77 -26 -127 -66 -160 -132 -22 -42 -27 -68 -31 -151 -3
-85 -1 -109 17 -157 64 -167 313 -239 501 -143 58 30 94 68 120 128 42 95 36
259 -14 341 -70 116 -271 169 -433 114z m218 -157 c28 -29 29 -32 29 -136 0
-128 -12 -159 -67 -174 -49 -14 -108 2 -129 35 -12 18 -17 50 -18 122 -2 146
20 180 112 181 35 1 49 -5 73 -28z"/>
<path d="M1054 2984 c-45 -22 -57 -55 -63 -177 l-6 -107 113 0 112 0 0 90 c0
79 2 91 20 100 14 8 26 8 41 0 20 -11 21 -18 17 -153 -4 -166 -11 -184 -111
-300 -153 -176 -178 -219 -184 -317 -2 -36 -5 -86 -7 -112 l-3 -48 268 0 269
0 0 55 0 55 -156 0 -157 0 6 36 c10 61 43 114 148 239 55 66 109 137 120 157
43 83 51 334 14 425 -26 65 -53 73 -247 73 -126 0 -170 -4 -194 -16z"/>
<path d="M1674 2985 c-46 -24 -66 -75 -72 -187 l-5 -98 117 0 116 0 0 90 c0
79 2 91 20 100 14 8 26 8 40 0 18 -10 20 -21 20 -143 0 -165 -10 -189 -139
-337 -56 -64 -105 -134 -128 -179 -34 -67 -38 -82 -41 -172 l-4 -99 271 0 271
0 0 55 0 55 -155 0 -155 0 0 28 c0 40 41 117 100 187 142 170 163 198 182 247
14 37 22 87 25 168 7 141 -7 219 -47 263 l-28 32 -179 3 c-145 2 -184 -1 -209
-13z"/>
<path d="M2293 2986 c-65 -29 -67 -44 -70 -486 -4 -549 -11 -533 240 -538 196
-4 233 5 265 68 22 44 22 49 21 450 0 437 -2 457 -52 494 -26 19 -44 21 -200
23 -132 2 -180 0 -204 -11z m221 -102 c14 -13 16 -64 16 -403 0 -419 0 -417
-52 -409 l-23 3 -3 400 c-2 367 -1 401 15 413 22 16 28 15 47 -4z"/>
<path d="M2913 2985 c-67 -29 -68 -34 -71 -488 -4 -556 -16 -532 263 -532 198
0 222 7 249 75 14 35 16 94 16 443 -1 543 13 517 -267 517 -112 -1 -167 -5
-190 -15z m229 -109 c4 -6 8 -185 8 -397 0 -417 0 -415 -52 -407 l-23 3 -3
400 c-2 358 -1 401 14 412 17 12 44 7 56 -11z"/>
<path d="M3533 2985 c-17 -7 -40 -28 -50 -47 -17 -30 -18 -66 -18 -448 0 -556
-16 -525 260 -525 185 0 214 8 242 63 17 34 18 71 18 457 0 387 -1 423 -18
453 -29 53 -64 62 -244 62 -112 -1 -167 -5 -190 -15z m229 -109 c12 -18 10
-764 -2 -787 -6 -11 -21 -19 -35 -19 -14 0 -29 8 -35 19 -6 13 -10 157 -10
400 0 375 0 380 21 395 22 15 48 11 61 -8z"/>
<path d="M5765 2707 c-60 -72 -110 -138 -110 -144 0 -7 -9 -20 -20 -30 -19
-18 -19 -18 -1 5 11 12 16 22 13 22 -12 0 -226 -263 -221 -271 2 -4 -1 -11 -7
-15 -8 -5 -10 -2 -5 7 4 8 -2 3 -13 -10 -12 -12 -19 -27 -16 -31 3 -4 -3 -14
-13 -21 -16 -13 -16 -12 -3 6 7 11 -1 5 -18 -13 -17 -18 -29 -37 -26 -41 2 -5
-3 -15 -13 -22 -16 -13 -16 -12 -2 6 10 14 7 13 -13 -5 -15 -13 -25 -30 -22
-38 2 -7 1 -10 -4 -7 -6 3 -27 -16 -48 -41 -21 -26 -78 -93 -126 -151 -48 -57
-86 -107 -83 -112 7 -10 -18 -34 -26 -25 -9 8 -48 -47 -41 -59 3 -5 2 -7 -4
-4 -5 3 -25 -13 -44 -36 -19 -22 -51 -61 -72 -85 -20 -24 -34 -48 -31 -54 4
-6 3 -8 -3 -5 -13 8 -57 -38 -49 -51 3 -5 -4 -18 -17 -28 l-22 -19 20 25 c16
21 14 20 -13 -4 -31 -29 -44 -54 -19 -40 6 4 3 -2 -7 -14 -23 -26 -34 -29 -16
-4 17 23 -42 -44 -129 -146 -39 -46 -69 -87 -66 -91 2 -5 -8 -19 -23 -32 l-27
-24 20 26 c11 14 1 5 -22 -20 -24 -26 -41 -52 -38 -58 2 -7 -1 -12 -8 -10 -7
1 -11 -4 -9 -11 1 -8 -2 -11 -7 -7 -6 3 -18 -6 -27 -20 -9 -14 -23 -25 -32
-25 -8 0 -12 3 -9 6 9 9 -34 84 -44 78 -5 -3 -7 1 -4 8 6 17 -80 160 -90 150
-5 -4 -5 -1 -1 5 9 16 -17 56 -29 45 -5 -4 -5 -2 -1 5 8 15 -33 95 -45 87 -5
-3 -6 1 -3 9 3 8 0 18 -7 23 -8 5 -10 3 -4 -6 5 -8 4 -11 -3 -6 -6 4 -8 14 -5
23 5 12 3 14 -7 8 -9 -5 -11 -4 -6 3 11 18 -191 375 -207 365 -6 -3 -7 -1 -4
5 9 14 -3 43 -14 36 -5 -3 -6 2 -3 10 3 9 2 16 -2 15 -20 -1 -699 -346 -699
-355 0 -5 31 -12 69 -16 48 -5 87 -16 127 -37 31 -16 60 -27 65 -23 4 4 4 1 0
-5 -6 -11 4 -17 25 -15 4 1 17 -11 30 -26 l24 -27 -29 25 c-29 24 -29 24 4
-17 18 -24 35 -43 38 -43 2 0 -2 8 -9 18 -13 15 -12 16 3 3 10 -7 16 -17 13
-21 -8 -12 45 -111 56 -105 5 4 6 -2 2 -11 -5 -13 -3 -15 7 -9 8 5 11 4 6 -3
-9 -15 42 -115 54 -107 6 4 7 -1 3 -11 -4 -12 -3 -15 5 -10 8 5 10 1 5 -10 -5
-13 -3 -15 7 -9 9 5 11 4 6 -3 -6 -11 29 -92 40 -92 3 0 2 5 -2 12 -4 7 -3 8
4 4 6 -4 8 -14 5 -23 -4 -11 -3 -14 5 -9 8 5 10 1 5 -10 -5 -13 -3 -15 7 -9 9
5 11 4 6 -4 -9 -14 34 -102 45 -95 5 3 6 -3 2 -12 -5 -13 -3 -15 7 -9 9 5 11
4 6 -4 -5 -7 8 -38 28 -72 20 -33 36 -63 36 -65 0 -16 89 -152 95 -146 5 4 5
2 1 -5 -7 -13 32 -85 43 -78 4 2 7 -6 7 -18 -1 -13 4 -21 12 -19 8 1 11 -2 8
-7 -8 -12 70 -147 83 -144 6 2 7 -5 4 -14 -5 -12 -3 -14 7 -8 9 5 11 4 6 -4
-5 -7 10 -43 35 -84 64 -108 58 -105 96 -45 18 29 31 58 29 65 -3 7 0 15 6 19
7 5 8 2 3 -6 -6 -9 -4 -11 4 -6 7 5 10 14 7 22 -3 8 -1 13 4 11 13 -3 81 113
73 126 -4 6 -1 7 7 2 10 -6 12 -4 6 11 -4 10 -4 15 0 11 10 -10 96 124 90 140
-3 7 0 15 6 19 7 5 8 2 3 -6 -6 -9 -4 -11 4 -6 7 5 10 15 7 23 -3 8 -2 12 3 8
11 -6 63 83 56 95 -3 5 0 12 6 16 8 5 10 2 5 -7 -4 -8 0 -5 8 6 9 11 14 26 11
34 -3 9 -3 12 1 8 10 -10 85 105 79 121 -3 8 0 10 7 6 8 -5 9 -2 5 10 -4 9 -3
15 2 11 12 -7 103 144 94 158 -4 6 -1 7 7 2 10 -6 12 -4 6 11 -4 10 -4 15 0
11 11 -11 86 111 78 125 -5 7 -3 8 6 3 10 -6 12 -4 7 9 -4 9 -3 15 3 11 12 -7
82 113 74 127 -4 6 -3 8 3 5 13 -8 96 130 87 146 -4 7 -4 9 1 5 11 -10 38 29
30 42 -4 6 -2 9 4 8 6 -2 25 21 42 51 17 29 25 50 17 46 -7 -3 -5 0 4 8 10 8
14 17 10 21 -4 4 -2 6 5 4 15 -4 95 130 86 145 -3 5 -2 8 3 4 10 -6 87 117 87
139 0 7 5 10 10 7 6 -4 8 0 4 10 -3 9 -2 16 3 14 13 -3 81 113 73 126 -4 6 -1
7 7 2 10 -6 12 -4 7 9 -4 9 -3 15 1 12 11 -7 105 151 97 163 -3 5 0 13 6 17 8
4 9 3 5 -4 -4 -7 -5 -12 -3 -12 10 0 77 122 72 130 -3 5 0 12 6 16 8 4 9 3 5
-4 -4 -7 -5 -12 -3 -12 11 0 87 142 81 152 -5 7 -3 8 6 3 10 -6 12 -4 7 9 -4
9 -3 15 1 12 5 -3 23 20 41 50 27 43 31 57 22 68 -8 10 -9 16 -1 21 6 4 9 3 8
-2 -2 -4 2 -8 7 -8 6 0 9 6 9 12 -1 7 2 10 7 8 4 -3 20 16 33 42 14 26 35 63
47 81 11 17 19 32 17 32 -1 0 -52 -60 -113 -133z m-55 -90 c0 -2 -10 -12 -22
-23 l-23 -19 19 23 c18 21 26 27 26 19z m-640 -760 c0 -2 -10 -12 -22 -23
l-23 -19 19 23 c18 21 26 27 26 19z m-640 -760 c0 -2 -10 -12 -22 -23 l-23
-19 19 23 c18 21 26 27 26 19z"/>
</g>
</svg>
