<?xml version="1.0" standalone="no"?>
<!DOCTYPE svg PUBLIC "-//W3C//DTD SVG 20010904//EN"
 "http://www.w3.org/TR/2001/REC-SVG-20010904/DTD/svg10.dtd">
<svg version="1.0" xmlns="http://www.w3.org/2000/svg"
 width="302.000000pt" height="167.000000pt" viewBox="0 0 302.000000 167.000000"
 preserveAspectRatio="xMidYMid meet">

<g transform="translate(0.000000,167.000000) scale(0.100000,-0.100000)"
fill="#000000" stroke="none">
<path d="M1350 1656 c-77 -17 -135 -50 -193 -109 l-49 -51 43 -20 c95 -44 171
-153 206 -293 24 -98 24 -306 -1 -393 -44 -154 -34 -175 84 -168 90 5 183 44
247 102 22 20 43 36 46 36 3 0 7 -109 9 -243 4 -265 10 -299 73 -381 73 -96
313 -156 486 -122 189 37 357 160 432 317 82 170 88 411 16 637 -24 75 -39
102 -73 137 -55 58 -66 58 -55 -1 13 -67 48 -124 96 -156 38 -26 42 -33 50
-86 14 -98 8 -290 -11 -362 -27 -99 -75 -188 -138 -255 -95 -102 -203 -145
-364 -145 -153 0 -253 57 -295 170 -39 103 -40 183 -9 595 35 458 40 599 22
617 -17 17 -138 22 -207 8 l-57 -12 6 -36 c13 -77 26 -615 15 -628 -17 -21
-130 -74 -156 -74 -13 0 -26 7 -29 15 -3 8 6 61 20 117 45 179 59 294 54 461
-4 125 -8 162 -26 208 -26 64 -64 105 -113 119 -42 12 -59 12 -129 -4z"/>
<path d="M425 1649 c-173 -17 -304 -67 -370 -140 -31 -35 -55 -91 -55 -131 0
-16 28 -109 35 -116 2 -2 34 8 72 21 87 32 189 47 300 46 l88 0 -45 -21 c-25
-11 -55 -24 -67 -28 -21 -9 -21 -10 -6 -57 12 -40 14 -85 7 -278 -13 -383 -12
-419 12 -452 28 -37 82 -41 180 -12 69 21 73 23 59 39 -27 30 -53 111 -60 190
-4 46 0 163 10 299 10 124 15 244 12 268 -4 39 -3 42 17 38 11 -2 72 -16 135
-32 l114 -27 58 62 c114 121 112 224 -5 284 -84 43 -314 65 -491 47z"/>
<path d="M884 1121 c-73 -33 -150 -151 -179 -273 -18 -75 -19 -216 -4 -269 25
-83 90 -125 168 -108 48 10 80 37 127 107 l41 62 7 -57 c14 -122 49 -140 188
-97 l46 15 -33 49 c-55 81 -59 105 -52 296 7 196 7 198 -67 192 -44 -3 -46 -2
-62 35 -10 21 -27 45 -38 53 -28 19 -93 17 -142 -5z m126 -192 c24 -101 -11
-242 -72 -295 -25 -20 -33 -22 -45 -12 -33 27 8 224 65 315 15 24 30 43 34 43
3 0 12 -23 18 -51z"/>
<path d="M2799 1094 c-22 -26 -24 -138 -4 -191 20 -53 29 -46 45 35 6 35 5 65
-4 106 -16 67 -19 72 -37 50z"/>
<path d="M2368 1094 c-9 -3 -19 -17 -22 -32 -14 -64 -25 -184 -26 -267 0 -97
-14 -135 -50 -135 -50 0 -72 136 -46 292 9 54 16 100 16 103 0 3 -36 5 -79 5
-105 0 -117 -10 -131 -113 -15 -113 -12 -247 6 -328 13 -58 23 -78 58 -115 39
-40 47 -44 92 -44 43 0 54 4 81 33 34 35 63 87 63 112 0 8 5 15 10 15 6 0 10
-6 10 -13 0 -23 58 -95 89 -112 31 -16 88 -20 107 -7 6 4 16 17 22 29 10 18 9
23 -7 28 -25 8 -48 72 -56 156 -7 73 10 260 30 326 11 36 11 44 -2 55 -16 13
-133 21 -165 12z"/>
<path d="M2623 870 c8 -58 42 -121 85 -153 45 -35 51 -23 27 58 -11 38 -28 68
-55 95 -51 51 -64 51 -57 0z"/>
<path d="M2869 864 c-25 -41 -35 -113 -24 -171 l7 -38 23 40 c14 21 29 60 34
86 10 47 5 119 -9 119 -5 0 -18 -16 -31 -36z"/>
<path d="M2657 693 c-13 -12 -7 -124 8 -160 17 -40 43 -73 57 -73 16 0 8 134
-11 175 -19 43 -44 69 -54 58z"/>
<path d="M2944 666 c-40 -17 -97 -86 -112 -133 -6 -20 -10 -39 -8 -41 9 -8 65
29 95 63 30 35 64 101 59 116 -2 4 -17 2 -34 -5z"/>
<path d="M2599 478 c-27 -61 -32 -163 -10 -213 l13 -30 23 49 c31 65 40 134
25 196 -7 28 -15 50 -20 50 -4 0 -18 -24 -31 -52z"/>
<path d="M2920 458 c-54 -15 -159 -101 -160 -132 0 -12 77 2 126 23 48 22 124
87 124 107 0 16 -38 17 -90 2z"/>
<path d="M2782 256 c-45 -15 -122 -63 -122 -76 0 -13 63 -18 117 -10 74 12
170 66 151 86 -13 12 -107 12 -146 0z"/>
</g>
</svg>
